<svg width="37" height="36" viewBox="0 0 37 36" fill="none" xmlns="http://www.w3.org/2000/svg">
<path d="M21.6246 6.33555C21.1353 6.06924 20.6726 6 20.1886 6H18.6038H17.0189C16.5349 6 16.0722 6.06391 15.5829 6.33555C15.0511 6.62849 14.6948 6.92675 14.6948 7.37948C14.6948 7.87481 14.7799 8.05057 15.1841 8.88678C15.5882 9.72299 15.8914 10.4047 16.1094 10.5592C16.3275 10.7137 17.1306 10.6977 17.1306 10.6977H18.6038H20.077C20.077 10.6977 20.88 10.7137 21.0981 10.5592C21.3161 10.4047 21.6193 9.72299 22.0235 8.88678C22.4277 8.05057 22.5128 7.87481 22.5128 7.37948C22.5128 6.92675 22.1617 6.62316 21.6246 6.33555Z" fill="#FF884A"/>
<path d="M22.3266 26.7879L22.0288 27.0969C21.3374 27.8212 20.5982 28.4976 19.8217 29.1261L19.1782 29.6428C19.0877 29.7173 18.9707 29.7546 18.8537 29.7546H18.3485C18.2315 29.7546 18.1145 29.712 18.0241 29.6428L17.3805 29.1261C16.5987 28.4976 15.8648 27.8212 15.1734 27.0969L14.8756 26.7879C14.7586 26.6654 14.7054 26.495 14.732 26.3299L15.5085 21.2541L15.9286 18.5164L16.2211 16.5883L16.5456 14.4845L16.9657 11.7309C16.987 11.5924 17.104 11.4912 17.2476 11.4912H19.944C20.0823 11.4912 20.2046 11.5924 20.2259 11.7309L20.646 14.4845L20.9704 16.5883L21.263 18.5164L21.6831 21.2541L22.4596 26.3299C22.4968 26.5003 22.4436 26.6654 22.3266 26.7879Z" fill="#FF884A"/>
<path d="M35.8299 17.4247C35.8299 19.2356 35.0162 20.9347 33.5324 22.2023C32.0911 23.4326 30.1872 24.1144 28.1662 24.1144C26.1452 24.1144 24.2412 23.438 22.8 22.2023L21.6937 21.2596L21.2736 18.5219L23.97 20.8281C26.2835 22.8041 30.0436 22.8041 32.357 20.8281C33.4314 19.912 34.0217 18.703 34.0217 17.43C34.0217 16.1571 33.4314 14.9481 32.357 14.032C31.203 13.0413 29.6819 12.5513 28.1662 12.5513C26.6504 12.5513 25.1294 13.0466 23.9753 14.032L20.9811 16.5938L20.0025 17.4354L18.6038 18.6125L15.5191 21.2542L14.4129 22.197C12.9716 23.4273 11.0676 24.1091 9.04667 24.1091C7.02569 24.1091 5.12171 23.4326 3.68044 22.197C2.19661 20.9293 1.3829 19.2356 1.3829 17.4194C1.3829 15.6032 2.19661 13.9095 3.68044 12.6418C4.39842 12.024 5.23872 11.55 6.14816 11.2251C7.0576 10.9002 8.04149 10.7297 9.05198 10.7297C11.073 10.7297 12.9769 11.4062 14.4182 12.6418L16.5615 14.474L16.2371 16.5779L13.2429 14.016C12.0888 13.0306 10.5677 12.5353 9.05198 12.5353C7.53625 12.5353 6.0152 13.0306 4.86111 14.016C4.32396 14.474 3.90913 15.0066 3.62725 15.5819C3.34538 16.1571 3.19647 16.7803 3.19647 17.4141C3.19647 18.687 3.7868 19.8961 4.86111 20.8122C7.1746 22.7882 10.9347 22.7882 13.2482 20.8122L15.9446 18.5059L17.221 17.4141L18.6144 16.221L20.6673 14.4687L22.8106 12.6365C24.2412 11.4168 26.1452 10.7404 28.1662 10.7404C30.1872 10.7404 32.0911 11.4168 33.5324 12.6525C34.2717 13.2863 34.846 14.0266 35.2343 14.8362C35.6225 15.6405 35.8299 16.5193 35.8299 17.4247Z" fill="#F4DDD5"/>
</svg>
