<svg viewBox="0 0 166 46" fill="none" xmlns="http://www.w3.org/2000/svg">
<path d="M41.6 15.0974V24.8974H45.842C48.194 24.8974 49.531 23.9734 49.531 22.0904C49.531 21.0334 48.796 20.1934 47.9 19.8924C48.719 19.5914 49.321 18.8004 49.321 17.8134C49.321 15.9444 47.886 15.0974 45.604 15.0974H41.6ZM45.744 20.8234C46.822 20.8234 47.501 21.0754 47.501 21.9924C47.501 22.9304 46.822 23.1824 45.744 23.1824L43.553 23.1754V20.8234H45.744ZM45.548 16.8194C46.514 16.8194 47.284 17.0294 47.284 17.9534C47.284 18.9054 46.528 19.1084 45.555 19.1084H43.553V16.8194H45.548Z" fill="white"/>
<path d="M58.8954 23.1054H53.5264V20.8514H58.5944V19.0594H53.5264V16.8894H58.8394V15.0974H51.5734V24.8974H58.8954V23.1054Z" fill="white"/>
<path d="M71.9926 15.0974H69.1296L66.5886 21.7124L64.0406 15.0974H61.1776V24.8974H63.1306V17.5544L65.5526 23.9524H67.6176L70.0396 17.4984V24.8974H71.9926V15.0974Z" fill="white"/>
<path d="M85.1065 19.1294H80.1925V16.8964H85.4355V15.0974H78.2395V24.8974H80.1925V20.9284H85.1065V19.1294Z" fill="white"/>
<path d="M89.4413 15.0974H87.4883V24.8974H89.4413V15.0974Z" fill="white"/>
<path d="M97.1809 15.0974H94.8009L90.9859 24.8974H93.0229L93.8769 22.6154H98.0559L98.9099 24.8974H100.996L97.1809 15.0974ZM95.9699 17.0294L97.3839 20.8164H94.5489L95.9699 17.0294Z" fill="white"/>
<path d="M114.418 15.0974H112.458V20.8864C112.458 22.4964 111.548 23.2034 110.197 23.2034C108.846 23.2034 107.936 22.4964 107.936 20.8864V15.0974H105.976V20.9844C105.976 23.6934 107.705 25.0724 110.197 25.0724C112.689 25.0724 114.418 23.6934 114.418 20.9844V15.0974Z" fill="white"/>
<path d="M118.766 15.0974H116.813V24.8974H118.766V15.0974Z" fill="white"/>
<path d="M125.59 17.8064C126.094 17.2324 126.647 16.7284 127.578 16.7284C128.481 16.7284 129.076 17.3374 129.076 18.1914C129.076 18.8074 128.789 19.3464 128.271 19.8714L124.806 23.4204V24.8974H131.281V23.1264H127.536L129.629 20.9494C130.434 20.1164 131.043 19.2834 131.043 18.0864C131.043 16.2104 129.769 14.9224 127.718 14.9224C125.898 14.9224 124.904 15.9164 124.372 16.6094L125.59 17.8064Z" fill="white"/>
<path d="M137.014 14.9224C134.669 14.9224 132.793 16.8264 132.793 19.9974C132.793 23.1684 134.669 25.0724 137.014 25.0724C139.352 25.0724 141.242 23.1684 141.242 19.9974C141.242 16.8264 139.352 14.9224 137.014 14.9224ZM137.014 16.7354C138.274 16.7354 139.268 17.8554 139.268 19.9974C139.268 22.1394 138.274 23.2594 137.014 23.2594C135.761 23.2594 134.76 22.1394 134.76 19.9974C134.76 17.8554 135.761 16.7354 137.014 16.7354Z" fill="white"/>
<path d="M143.732 17.8064C144.236 17.2324 144.789 16.7284 145.72 16.7284C146.623 16.7284 147.218 17.3374 147.218 18.1914C147.218 18.8074 146.931 19.3464 146.413 19.8714L142.948 23.4204V24.8974H149.423V23.1264H145.678L147.771 20.9494C148.576 20.1164 149.185 19.2834 149.185 18.0864C149.185 16.2104 147.911 14.9224 145.86 14.9224C144.04 14.9224 143.046 15.9164 142.514 16.6094L143.732 17.8064Z" fill="white"/>
<path d="M154.84 14.9434L150.605 16.6514V18.5554L152.95 17.6034V24.8974H154.84V14.9434Z" fill="white"/>
<path d="M44.2985 29.4804C42.386 29.4804 41 30.8529 41 32.7474C41 34.8489 42.629 36.0099 44.2535 36.0099C46.202 36.0099 47.3495 34.5114 47.3495 32.7024C47.3495 32.6214 47.345 32.5404 47.3405 32.4594H44.5685V33.4044H46.238C46.076 34.4439 45.401 35.0379 44.2535 35.0379C43.0115 35.0379 42.0665 34.1064 42.0665 32.7474C42.0665 31.3884 43.0115 30.4569 44.2985 30.4569C45.0005 30.4569 45.5945 30.7494 45.9905 31.2219L46.7375 30.4974C46.166 29.8584 45.302 29.4804 44.2985 29.4804Z" fill="white"/>
<path d="M50.615 31.4739C49.346 31.4739 48.4685 32.3919 48.4685 33.7419C48.4685 35.1099 49.382 36.0099 50.6735 36.0099C51.326 36.0099 51.92 35.8524 52.4465 35.4024L51.9785 34.7319C51.623 35.0154 51.164 35.1864 50.732 35.1864C50.12 35.1864 49.5755 34.8624 49.4495 34.0884H52.6355C52.6445 33.9804 52.6535 33.8589 52.6535 33.7374C52.649 32.3919 51.821 31.4739 50.615 31.4739ZM50.597 32.3109C51.1955 32.3109 51.587 32.7024 51.6905 33.3729H49.454C49.553 32.7429 49.9265 32.3109 50.597 32.3109Z" fill="white"/>
<path d="M59.3187 31.4739C58.7832 31.4739 58.1172 31.6269 57.7437 32.2434C57.4467 31.7664 56.9112 31.4739 56.2542 31.4739C55.8132 31.4739 55.2777 31.6044 54.9312 32.1129V31.5864H53.9952V35.8974H54.9402V33.5079C54.9402 32.7699 55.4487 32.3694 56.0562 32.3694C56.6862 32.3694 57.0597 32.7744 57.0597 33.4989V35.8974H58.0047V33.5079C58.0047 32.7699 58.5132 32.3694 59.1207 32.3694C59.7507 32.3694 60.1242 32.7744 60.1242 33.4989V35.8974H61.0692V33.1884C61.0692 32.1804 60.3447 31.4739 59.3187 31.4739Z" fill="white"/>
<path d="M66.823 31.5864H65.8825V32.1084C65.5855 31.7259 65.14 31.4739 64.528 31.4739C63.322 31.4739 62.3725 32.4234 62.3725 33.7419C62.3725 35.0604 63.322 36.0099 64.528 36.0099C65.14 36.0099 65.5855 35.7624 65.8825 35.3799V35.8974H66.823V31.5864ZM64.6405 32.3604C65.419 32.3604 65.941 32.9544 65.941 33.7419C65.941 34.5294 65.419 35.1234 64.6405 35.1234C63.8305 35.1234 63.34 34.4979 63.34 33.7419C63.34 32.9859 63.8305 32.3604 64.6405 32.3604Z" fill="white"/>
<path d="M69.4242 29.4174H68.4792V35.8974H69.4242V34.0794H69.8922L71.3277 35.8974H72.5202L70.6977 33.6159L72.5022 31.5864H71.3187L69.8967 33.2244H69.4242V29.4174Z" fill="white"/>
<path d="M77.5101 31.5864H76.5696V32.1084C76.2726 31.7259 75.8271 31.4739 75.2151 31.4739C74.0091 31.4739 73.0596 32.4234 73.0596 33.7419C73.0596 35.0604 74.0091 36.0099 75.2151 36.0099C75.8271 36.0099 76.2726 35.7624 76.5696 35.3799V35.8974H77.5101V31.5864ZM75.3276 32.3604C76.1061 32.3604 76.6281 32.9544 76.6281 33.7419C76.6281 34.5294 76.1061 35.1234 75.3276 35.1234C74.5176 35.1234 74.0271 34.4979 74.0271 33.7419C74.0271 32.9859 74.5176 32.3604 75.3276 32.3604Z" fill="white"/>
<path d="M81.4253 31.4739C80.9843 31.4739 80.4488 31.6044 80.1023 32.1129V31.5864H79.1663V35.8974H80.1113V33.5079C80.1113 32.7699 80.6198 32.3694 81.2273 32.3694C81.8573 32.3694 82.2308 32.7744 82.2308 33.4989V35.8974H83.1758V33.1884C83.1758 32.1804 82.4513 31.4739 81.4253 31.4739Z" fill="white"/>
<path d="M90.466 29.4804C88.531 29.4804 87.1675 30.8664 87.1675 32.7474C87.1675 34.6284 88.531 36.0144 90.466 36.0144C91.5685 36.0144 92.5135 35.5284 93.049 34.7409L92.221 34.1334C91.8295 34.7004 91.213 35.0379 90.466 35.0379C89.179 35.0379 88.234 34.1064 88.234 32.7474C88.234 31.3884 89.179 30.4569 90.466 30.4569C91.2175 30.4569 91.843 30.8079 92.2255 31.3659L93.076 30.7989C92.581 29.9799 91.5865 29.4804 90.466 29.4804Z" fill="white"/>
<path d="M96.3823 31.4739C95.0503 31.4739 94.0648 32.4504 94.0648 33.7419C94.0648 35.0334 95.0503 36.0099 96.3823 36.0099C97.7143 36.0099 98.7043 35.0334 98.7043 33.7419C98.7043 32.4504 97.7143 31.4739 96.3823 31.4739ZM96.3823 32.3604C97.1518 32.3604 97.7368 32.9274 97.7368 33.7419C97.7368 34.5564 97.1518 35.1234 96.3823 35.1234C95.6128 35.1234 95.0323 34.5564 95.0323 33.7419C95.0323 32.9274 95.6128 32.3604 96.3823 32.3604Z" fill="white"/>
<path d="M102.231 31.4739C101.704 31.4739 101.263 31.6629 100.98 32.0724V31.5864H100.048V35.8974H100.989V33.5259C100.989 32.7924 101.416 32.3694 102.015 32.3694C102.244 32.3694 102.532 32.4234 102.73 32.5269L102.955 31.5954C102.739 31.5099 102.519 31.4739 102.231 31.4739Z" fill="white"/>
<path d="M108.06 31.5864H107.119V32.1084C106.822 31.7259 106.377 31.4739 105.765 31.4739C104.559 31.4739 103.609 32.4234 103.609 33.7419C103.609 35.0604 104.559 36.0099 105.765 36.0099C106.377 36.0099 106.822 35.7624 107.119 35.3799V35.8974H108.06V31.5864ZM105.877 32.3604C106.656 32.3604 107.178 32.9544 107.178 33.7419C107.178 34.5294 106.656 35.1234 105.877 35.1234C105.067 35.1234 104.577 34.4979 104.577 33.7419C104.577 32.9859 105.067 32.3604 105.877 32.3604Z" fill="white"/>
<path d="M110.661 29.4174H109.716V35.8974H110.661V34.0794H111.129L112.565 35.8974H113.757L111.935 33.6159L113.739 31.5864H112.556L111.134 33.2244H110.661V29.4174Z" fill="white"/>
<path d="M119.861 33.4224C121.315 33.4224 122.093 32.6889 122.093 31.5099C122.093 30.3309 121.315 29.5974 119.861 29.5974H117.418V35.8974H118.435V33.4224H119.861ZM119.834 30.5559C120.658 30.5559 121.036 30.8619 121.036 31.5099C121.036 32.1579 120.658 32.4639 119.834 32.4639H118.435V30.5559H119.834Z" fill="white"/>
<path d="M125.144 31.4739C123.875 31.4739 122.997 32.3919 122.997 33.7419C122.997 35.1099 123.911 36.0099 125.202 36.0099C125.855 36.0099 126.449 35.8524 126.975 35.4024L126.507 34.7319C126.152 35.0154 125.693 35.1864 125.261 35.1864C124.649 35.1864 124.104 34.8624 123.978 34.0884H127.164C127.173 33.9804 127.182 33.8589 127.182 33.7374C127.178 32.3919 126.35 31.4739 125.144 31.4739ZM125.126 32.3109C125.724 32.3109 126.116 32.7024 126.219 33.3729H123.983C124.082 32.7429 124.455 32.3109 125.126 32.3109Z" fill="white"/>
<path d="M130.706 31.4739C130.18 31.4739 129.739 31.6629 129.455 32.0724V31.5864H128.524V35.8974H129.464V33.5259C129.464 32.7924 129.892 32.3694 130.49 32.3694C130.72 32.3694 131.008 32.4234 131.206 32.5269L131.431 31.5954C131.215 31.5099 130.994 31.4739 130.706 31.4739Z" fill="white"/>
<path d="M136.478 31.5864H135.533V33.9849C135.533 34.8174 135.07 35.1234 134.48 35.1234C133.891 35.1234 133.427 34.8174 133.427 33.9849V31.5864H132.482V34.0704C132.482 35.4429 133.468 36.0099 134.48 36.0099C135.488 36.0099 136.478 35.4429 136.478 34.0704V31.5864Z" fill="white"/>
<path d="M140.377 31.4739C139.765 31.4739 139.324 31.7214 139.027 32.0994V29.4174H138.086V35.8974H139.027V35.3844C139.324 35.7624 139.765 36.0099 140.377 36.0099C141.583 36.0099 142.532 35.0604 142.532 33.7419C142.532 32.4234 141.583 31.4739 140.377 31.4739ZM140.264 32.3604C141.074 32.3604 141.565 32.9859 141.565 33.7419C141.565 34.4979 141.074 35.1234 140.264 35.1234C139.486 35.1234 138.964 34.5294 138.964 33.7419C138.964 32.9544 139.486 32.3604 140.264 32.3604Z" fill="white"/>
<path d="M148.014 31.5864H147.073V32.1084C146.776 31.7259 146.331 31.4739 145.719 31.4739C144.513 31.4739 143.563 32.4234 143.563 33.7419C143.563 35.0604 144.513 36.0099 145.719 36.0099C146.331 36.0099 146.776 35.7624 147.073 35.3799V35.8974H148.014V31.5864ZM145.831 32.3604C146.61 32.3604 147.132 32.9544 147.132 33.7419C147.132 34.5294 146.61 35.1234 145.831 35.1234C145.021 35.1234 144.531 34.4979 144.531 33.7419C144.531 32.9859 145.021 32.3604 145.831 32.3604Z" fill="white"/>
<path d="M150.615 29.4174H149.67V35.8974H150.615V33.5079C150.615 32.7699 151.123 32.3694 151.731 32.3694C152.361 32.3694 152.734 32.7744 152.734 33.4989V35.8974H153.679V33.1884C153.679 32.1804 152.955 31.4739 151.929 31.4739C151.492 31.4739 150.961 31.6044 150.615 32.0994V29.4174Z" fill="white"/>
<path d="M159.43 31.5864H158.49V32.1084C158.193 31.7259 157.747 31.4739 157.135 31.4739C155.929 31.4739 154.98 32.4234 154.98 33.7419C154.98 35.0604 155.929 36.0099 157.135 36.0099C157.747 36.0099 158.193 35.7624 158.49 35.3799V35.8974H159.43V31.5864ZM157.248 32.3604C158.026 32.3604 158.548 32.9544 158.548 33.7419C158.548 34.5294 158.026 35.1234 157.248 35.1234C156.438 35.1234 155.947 34.4979 155.947 33.7419C155.947 32.9859 156.438 32.3604 157.248 32.3604Z" fill="white"/>
<path d="M163.345 31.4739C162.904 31.4739 162.369 31.6044 162.022 32.1129V31.5864H161.086V35.8974H162.031V33.5079C162.031 32.7699 162.54 32.3694 163.147 32.3694C163.777 32.3694 164.151 32.7744 164.151 33.4989V35.8974H165.096V33.1884C165.096 32.1804 164.371 31.4739 163.345 31.4739Z" fill="white"/>
<path d="M7.2614 27.0501C7.35664 27.1365 7.33066 27.3405 7.56442 27.2778C8.56872 26.9638 9.19208 26.0534 9.00161 25.0959C8.87175 24.4444 8.76785 23.7773 8.35228 23.2044C8.24839 23.0631 8.17047 22.914 8.0406 22.7884C7.59905 22.3567 7.63368 21.8701 7.76355 21.3286C7.95402 20.5516 8.51678 19.9629 8.8804 19.2801C9.2094 19.0447 9.59034 19.0917 9.94531 19.1859C10.2137 19.2566 10.3695 19.4371 10.3522 19.7196C10.3349 20.0807 10.3609 20.4338 10.1877 20.787C9.8241 21.5248 10.1271 22.2076 10.4475 22.8904C11.1574 24.3817 11.7028 25.9121 11.7201 27.5525C11.7201 27.7879 11.6509 28.0155 11.6076 28.2431C11.3738 29.4832 10.9409 30.6997 11.0448 31.979C11.0968 32.1909 11.0708 32.4028 11.0795 32.6226C11.0881 32.9601 11.0535 33.2976 10.9323 33.6272C10.7418 34.1609 10.8457 34.6789 10.9669 35.2048C11.0275 35.4481 11.218 35.605 11.3912 35.7777C11.4171 35.9818 11.244 36.0838 11.1141 36.1858C10.1618 36.9471 9.09685 37.5593 7.91939 37.991C7.69429 38.0695 7.46919 38.093 7.27872 37.9204C7.14019 37.6535 6.84583 37.473 6.76791 37.159C6.74194 35.5658 5.93676 34.1452 5.51253 32.6383C5.32206 31.9555 5.09696 31.2805 4.70736 30.6605C4.61213 30.5113 4.53421 30.3544 4.42165 30.221C4.17058 29.9306 3.93682 29.6402 4.00608 29.2399C4.01474 29.2006 3.99743 29.1928 3.91951 29.1771C3.73769 28.0783 3.20091 27.0737 2.80265 26.0377C2.74205 25.9278 2.75936 25.8493 2.9152 25.8886C3.0191 25.9121 3.04507 25.9749 3.10567 26.1947C3.09702 25.9043 2.84594 25.7787 2.74205 25.5668C2.61218 25.2842 2.51695 25.0252 2.81997 24.7819C2.94984 24.6799 2.90655 24.5857 2.80265 24.4837C2.53426 24.2325 2.68144 23.9971 2.86326 23.7852C3.06239 23.5497 3.29615 23.5654 3.49527 23.8087C3.54722 23.8715 3.57319 23.95 3.65111 23.9971C3.51259 23.4084 3.50393 23.4163 3.02776 22.9061C2.81997 22.6785 2.6901 22.3881 2.49097 22.1448C1.77238 21.2815 1.26157 20.3161 0.915261 19.2958C0.404453 17.8046 0.283244 16.3291 1.04513 14.8378C1.36546 14.2178 1.72043 13.5978 1.99748 12.9542C2.08406 12.758 2.18795 12.5461 2.50829 12.703C2.72473 12.9699 2.66413 13.2995 2.73339 13.5978C2.88923 14.3355 2.465 14.8849 2.03211 15.4108C1.48667 16.0701 1.25291 16.8 1.20097 17.5927C1.12305 18.8013 1.60788 19.8609 2.25721 20.8891C3.12299 22.2625 4.26582 23.4398 5.33938 24.6642C5.65106 25.0252 5.85884 25.449 6.23978 25.763C6.6467 26.2025 6.8718 26.7362 7.17482 27.1757C7.18348 27.16 7.16617 27.0894 7.2614 27.0501Z" fill="#F49D77"/>
<path d="M19.278 22.7492C19.4339 22.6079 19.2694 22.5216 19.2088 22.4117C18.646 21.4934 17.9707 20.6144 17.7629 19.5548C17.5205 18.3305 17.5119 17.0904 17.7889 15.866C17.9967 14.9085 17.8755 14.0059 17.4599 13.119C17.2781 12.7345 17.053 12.3734 16.9145 11.9731C16.7327 11.4473 16.8452 11.2668 17.4339 11.2197C17.6677 11.1961 17.9188 11.149 18.1439 11.2903C18.2045 11.3767 18.3084 11.3924 18.3949 11.4394C18.7066 11.6121 18.8365 11.8005 18.8278 12.1929C18.8105 12.9071 18.5508 13.5742 18.5162 14.2806C18.5075 14.414 18.4556 14.5318 18.3863 14.6495C18.2564 14.8536 18.2131 15.089 18.2911 15.2931C18.6374 16.2427 18.8452 17.2395 19.4858 18.095C19.962 18.7307 20.646 19.0604 21.4598 19.1702C22.0658 19.2566 22.5247 18.974 22.7238 18.4403C23.0615 17.5456 23.0528 16.5881 23.226 15.6698C23.3472 15.0576 23.3126 14.414 23.5896 13.8254C23.6762 13.6056 23.7714 13.3859 23.832 13.1583C23.8493 13.0405 23.8926 12.9228 23.9619 12.8208C24.0658 12.6638 24.0658 12.4755 24.135 12.3185C24.2043 12.1694 24.1956 11.9182 24.4987 11.9574C24.5766 12.0595 24.6112 12.1851 24.5679 12.2949C24.3601 12.7972 24.3861 13.3466 24.1264 13.8411C23.9013 14.2728 24.1004 14.6652 24.6112 14.8065C24.9056 14.8928 25.1826 15.0105 25.5289 14.885C25.7367 14.8065 25.8579 15.0027 25.9185 15.1753C25.9878 15.3794 26.0744 15.5678 26.2475 15.7169C26.3514 15.8032 26.3947 15.921 26.3861 16.0387C26.3514 16.439 26.438 16.8628 26.3428 17.2474C26.1523 18.0401 26.1869 18.8328 26.2042 19.6255C26.2129 20.0964 26.0224 20.4888 25.806 20.8812C25.1567 22.0899 24.8623 23.3692 25.0181 24.7192C25.0701 25.1508 25.3212 25.504 25.5549 25.865C25.6242 25.9828 25.7627 25.9985 25.8926 26.0142C26.0571 26.0299 26.2042 26.1083 26.1783 26.2496C26.109 26.6656 26.3168 27.113 26.0484 27.5132C25.8406 27.8193 25.8926 28.1725 25.8752 28.51C25.754 29.1143 25.4943 29.6637 25.148 30.1817C25.0441 30.3309 24.9142 30.4407 24.7411 30.5114C24.6372 30.5585 24.542 30.6056 24.5679 30.739C24.2649 30.9587 23.9013 31.0372 23.555 31.155C22.516 31.2648 21.4944 31.4767 20.4815 31.72C20.4555 31.72 20.4209 31.7279 20.3949 31.7279C20.2131 31.7122 19.9447 31.7907 19.9101 31.5945C19.8754 31.4297 20.1525 31.414 20.2997 31.359C20.5854 31.257 20.6719 31.0529 20.7239 30.8096C20.897 29.9698 20.923 29.1222 20.8364 28.2745C20.7931 27.8429 20.8018 27.4112 20.6979 26.9874C20.6373 26.7205 20.594 26.4458 20.4295 26.2104C20.2737 25.9828 20.3083 25.7316 20.2997 25.4883C20.3256 25.1822 20.5854 24.829 20.0659 24.6564C19.9707 24.0756 19.7282 23.5419 19.3819 23.0474C19.3127 22.9454 19.2088 22.8669 19.278 22.7492Z" fill="#F8A17B"/>
<path d="M25.7544 28.5491C25.7371 28.1017 25.6852 27.6387 26.0401 27.2541C26.1007 27.1913 26.1007 27.105 26.0748 27.0344C25.9882 26.8146 25.9969 26.6027 26.0661 26.3829C26.1354 26.1867 26.0921 26.0376 25.7977 26.1082C25.5899 26.1553 25.512 26.0297 25.3995 25.8885C24.6722 24.9309 24.7674 23.8792 24.9579 22.8197C25.1311 21.8779 25.5207 21.0067 26.0315 20.1747C26.1094 20.0492 26.0921 19.9236 26.0921 19.798C26.0921 19.2015 26.0921 18.5972 26.0921 18.0007C26.0921 17.7574 26.0575 17.5141 26.2306 17.2865C26.3085 17.1845 26.2826 17.0275 26.2306 16.9098C26.1613 16.7292 26.1787 16.5566 26.222 16.3761C26.2826 16.1171 26.3605 15.8424 25.9795 15.6775C25.815 15.6069 25.8583 15.4028 25.8064 15.2537C25.7458 15.0732 25.6852 14.7828 25.3648 15.0654C25.235 15.1752 25.1051 15.1595 24.9752 15.0811C24.8021 14.979 24.6376 14.8927 24.4211 14.9162C24.222 14.9398 24.2307 14.7593 24.1354 14.6886C23.6506 14.3198 23.8497 13.9666 24.1181 13.5977C24.1354 13.5741 24.1614 13.5506 24.1614 13.5271C24.0748 12.9698 24.5337 12.491 24.4471 11.9338C24.4471 11.9181 24.4385 11.8946 24.4385 11.8789C24.4904 11.455 24.7588 11.0783 24.7588 10.6466C24.8887 9.42228 24.5943 8.25285 24.0229 7.15406C23.6939 6.51833 23.3303 5.8826 23.0099 5.23902C22.8627 4.93293 22.7156 4.61899 22.4818 4.35214C22.248 4.08529 22.3606 3.72426 22.2221 3.46526C22.2221 3.59868 22.3692 3.7635 22.1961 3.92832C21.997 3.42601 22.1009 2.94725 22.3779 2.50774C22.5424 2.24089 22.7935 2.01328 22.9926 1.75428C23.1484 1.55806 23.235 1.60516 23.3649 1.77783C23.9103 2.53128 24.4125 3.30044 24.8713 4.09314C25.3562 4.93293 25.8237 5.77272 26.196 6.6596C26.6029 7.63281 26.9319 8.63743 26.9492 9.68913C26.9752 11.0705 27.0012 12.4597 26.8626 13.841C26.7241 15.2773 26.5077 16.7136 26.3345 18.1498C26.222 19.123 26.2393 20.0963 26.4211 21.0695C26.6981 22.5372 26.7328 24.0205 26.7068 25.5117C26.6635 25.9513 26.6722 26.3908 26.6029 26.8224C26.4557 27.0579 26.2479 27.2698 26.2566 27.5602C26.2133 27.8349 26.0834 28.0861 25.9969 28.3451C25.9709 28.4314 25.9276 28.557 25.7544 28.5491Z" fill="#F8B08C"/>
<path d="M9.99617 41.0991C9.99617 41.0285 9.98751 40.95 9.98751 40.8793C9.79704 40.5575 9.45939 40.3456 9.20831 40.0709C9.04382 39.8904 8.89663 39.702 8.74945 39.5137C8.64556 39.3803 8.61093 39.2311 8.73214 39.082C8.79274 39.0114 8.87932 38.9486 8.9659 38.9172C9.9702 38.5797 10.8013 37.9754 11.6671 37.426C11.771 37.3632 11.8662 37.2769 12.0048 37.2769C12.1606 37.2926 12.2212 37.371 12.1433 37.4888C11.8922 37.8812 12.1346 38.1794 12.4117 38.4227C13.0956 39.0114 13.8748 39.4666 14.7666 39.7648C15.7363 40.0945 16.7406 40.2985 17.7622 40.4634C18.0306 40.5026 18.2557 40.6596 18.5327 40.6988C19.2686 40.8087 19.6582 40.5183 19.6929 39.8198C20.0478 39.8041 20.2556 39.9532 20.2816 40.2671C20.2902 40.3849 20.2383 40.4947 20.2643 40.6125C20.1517 41.0598 19.8574 41.4287 19.5543 41.7662C19.0868 42.2764 18.576 42.7708 17.9959 43.1711C17.3466 43.6263 16.6367 43.9873 15.8834 44.2934C15.7536 44.317 15.6324 44.2934 15.5112 44.2306C15.0004 43.9873 14.5848 43.6106 14.1173 43.3045C13.719 43.0455 13.3121 42.7944 12.8965 42.5746C12.1346 42.1743 11.416 41.7348 10.7581 41.209C10.5243 41.0206 10.4637 41.0363 10.2646 41.2953C10.126 41.2796 9.99617 41.2639 9.99617 41.0991Z" fill="#F9B18B"/>
<path d="M23.4943 32.5599C23.2346 33.4075 22.6372 34.0747 22.0485 34.7418C21.91 34.8988 21.9273 35.0008 22.0052 35.1499C21.6589 35.8249 21.3126 36.492 20.6719 36.9943C20.2823 37.3397 20.1524 37.8263 19.8927 38.2344C19.633 38.6347 19.4079 39.0585 19.2953 39.5137C19.0269 39.5294 18.9057 39.3096 18.7066 39.2076C18.5248 39.1134 18.3603 38.9878 18.1785 38.9015C17.7542 38.5483 17.2434 38.2972 16.8019 37.9754C16.6807 37.889 16.5162 37.8341 16.5335 37.6536C16.8971 36.7903 17.4945 36.0525 18.0919 35.3226C18.3603 34.9929 18.6114 34.6712 18.8624 34.3337C19.0702 34.059 19.1741 33.745 19.2261 33.4232C19.3213 33.2349 19.5031 33.1407 19.7022 33.1172C20.3342 33.0622 20.897 32.7404 21.5463 32.7404C21.7195 32.7404 21.8753 32.6541 22.0312 32.5913C22.3688 32.4814 22.7151 32.4265 23.0701 32.4343C23.2259 32.4343 23.3818 32.4343 23.4943 32.5599Z" fill="#F9B790"/>
<path d="M24.0237 12.8603C23.9977 12.9623 23.9631 13.0722 23.9371 13.1742C23.7726 13.3547 23.738 13.5823 23.686 13.8021C23.4003 14.6105 23.409 15.466 23.2531 16.2979C23.106 17.0592 23.1146 17.8519 22.8116 18.5897C22.6384 19.0214 22.0757 19.3589 21.487 19.2804C20.1623 19.1077 19.4091 18.4798 18.9243 17.3967C18.6472 16.7767 18.4048 16.141 18.197 15.4974C18.1018 15.1991 18.0325 14.8616 18.2836 14.5634C18.3269 14.5163 18.3875 14.4457 18.3875 14.3986C18.3096 13.7236 18.7078 13.1114 18.6818 12.4364C18.6645 11.9812 18.7251 11.5574 18.1277 11.3769C18.1191 11.3769 18.1364 11.3141 18.1364 11.2827C19.0282 11.5496 19.5823 12.1617 19.9805 12.876C20.4134 13.653 20.6558 14.4849 20.7684 15.3718C20.8809 16.3058 21.3657 17.1613 21.6515 18.056C21.7121 18.2287 21.8679 18.1894 22.0064 18.1894C22.1363 18.0325 22.2056 17.8598 22.2056 17.6557C22.2229 16.7217 22.4307 15.7878 22.7943 14.9401C23.0713 14.2965 23.08 13.5666 23.5475 12.9858C23.6601 12.8289 23.7726 12.5934 24.0237 12.8603Z" fill="#EB7E5B"/>
<path d="M11.1664 8.3943C11.4434 7.04435 11.9542 5.78859 12.8546 4.6741C12.9066 4.61131 12.9585 4.54852 13.0538 4.54067C13.3135 4.66625 13.1923 4.82322 13.0797 4.95665C12.9585 5.10577 12.82 5.23134 12.7161 5.39616C12.4564 5.81213 12.6122 6.23595 13.097 6.41647C13.4347 6.54205 13.7637 6.65978 14.0321 6.88738C14.1793 7.01296 14.3091 6.99726 14.4217 6.84029C14.5602 6.66763 14.6468 6.47926 14.716 6.2752C14.9411 5.56098 15.3048 4.9174 15.8416 4.35231C16.1965 3.97558 16.6554 3.73228 17.1142 3.48897C17.2787 3.40264 17.5125 3.29276 17.6943 3.51252C17.7722 3.82646 17.6077 4.10116 17.5298 4.3837C17.2528 5.40401 17.0363 6.42432 17.0104 7.47602C17.0104 7.55451 17.0017 7.63299 16.9671 7.70363C16.9151 7.81351 16.8718 7.92338 16.8372 8.03326C16.8112 8.12745 16.716 8.22948 16.6208 8.19809C16.1532 8.04112 15.703 8.34721 15.2269 8.19809C14.8546 8.08036 14.6814 8.23733 14.6122 8.59836C14.5516 8.94369 14.4996 9.29688 14.2052 9.56373C13.8936 9.84627 13.5473 10.0189 13.0884 9.98755C12.9585 9.9797 12.8287 9.98755 12.6988 9.98755C11.7897 9.98755 11.4954 9.80703 11.1404 9.02218C11.0971 8.81812 11.2183 8.60621 11.1664 8.3943Z" fill="#F76D09"/>
<path d="M2.48256 12.7817C2.11894 12.6168 2.14491 12.97 2.0843 13.0799C1.72068 13.7549 1.39168 14.4377 1.07135 15.1284C0.621145 16.1094 0.525909 17.0983 0.751011 18.1657C0.941482 19.0762 1.31376 19.9081 1.69471 20.7401C1.91115 21.211 2.2488 21.6426 2.59511 22.0586C2.88948 22.4039 2.9674 22.9062 3.52149 23.0868C3.68599 23.1417 3.61673 23.3928 3.67733 23.5498C3.72928 23.6832 3.7033 23.8324 3.85914 23.9265C3.98901 24.005 3.96304 24.1071 3.85049 24.1855C3.73794 24.264 3.63404 24.2248 3.55612 24.1306C3.52149 24.0914 3.49552 24.0364 3.4782 23.9893C3.4176 23.8638 3.4176 23.6675 3.20116 23.7068C3.01068 23.7382 2.88082 23.8716 2.83753 24.0521C2.8029 24.2091 2.70766 24.3818 2.97605 24.4602C3.17518 24.523 3.20116 24.6565 3.07129 24.7977C2.67303 25.2216 2.66437 25.3236 3.06263 25.8102C3.18384 25.9593 3.27042 26.0927 3.14055 26.2889C3.07129 26.1791 3.028 26.0613 2.95008 25.975C2.8635 25.8887 2.84619 25.9907 2.82887 26.0456C2.71632 25.7866 2.59511 25.5276 2.48256 25.2686C2.3527 24.7585 2.11028 24.2876 1.76397 23.8638C0.863562 22.1999 0.136311 20.5124 0.0237604 18.6053C-0.0974481 16.3841 0.248862 14.2572 0.976113 12.1538C1.04538 11.9576 1.08866 11.7457 1.17524 11.5573C1.33974 11.212 1.70336 11.157 1.95444 11.4317C2.11894 11.6044 2.30941 11.777 2.37867 12.0125C2.30075 12.1302 2.36135 12.2244 2.43061 12.3343C2.54317 12.4599 2.61243 12.6168 2.48256 12.7817Z" fill="#F5AF8A"/>
<path d="M2.48122 12.7816C2.47256 12.6168 2.49853 12.452 2.36867 12.3107C2.28209 12.2165 2.26477 12.0988 2.38598 12.0046C3.06129 13.3153 2.80156 14.7045 2.75827 16.0702C2.74095 16.5646 2.73229 17.0591 2.72364 17.5614C2.50719 17.5457 2.59377 17.3416 2.48122 17.2161C2.33404 17.8832 2.4639 18.4875 2.68035 19.0919C2.87082 19.6413 3.19981 20.1357 3.50283 20.6302C3.52881 20.6773 3.58941 20.693 3.65001 20.7086C4.32532 21.5798 4.99196 22.4589 5.58069 23.385C5.52874 23.487 5.59801 23.5577 5.65861 23.6283C6.06552 24.1149 6.1521 24.7271 6.42915 25.2608C6.5417 25.4884 6.43781 25.716 6.21271 25.8808C5.66727 25.4335 5.36425 24.8213 4.89673 24.319C4.19545 23.5655 3.49418 22.8121 2.89679 21.9801C2.09162 20.8813 1.32974 19.7668 1.13061 18.4326C0.983429 17.4358 1.14793 16.4548 1.75397 15.6228C1.99639 15.2853 2.11759 14.8301 2.55914 14.6025C2.60243 14.579 2.63706 14.5162 2.63706 14.4691C2.61974 13.8961 2.80156 13.3232 2.48122 12.7816Z" fill="#ED8F6D"/>
<path d="M5.94559 1.18945C7.56459 1.55833 8.75936 2.43737 9.65111 3.70098C9.77232 3.87365 9.83292 4.0934 10.0061 4.24252C10.1186 4.3838 10.0407 4.58001 10.1792 4.71343C10.3004 4.85471 10.2139 5.05092 10.3524 5.18434C10.4217 5.60032 10.6121 6.00059 10.6121 6.43226C10.5688 6.62063 10.5515 6.81684 10.4476 6.99735C10.2398 7.33484 9.96279 7.45256 9.56453 7.32699C9.26151 7.23281 8.94117 7.22496 8.62949 7.21711C8.0754 7.19357 7.87627 7.0209 7.82432 6.49505C7.78969 6.13402 7.87627 5.76514 7.76372 5.41195C7.48667 4.58786 7.20962 3.76377 6.81136 2.97891C6.60358 2.57079 6.36982 2.18621 5.9629 1.91151C5.85035 1.83303 5.76378 1.72315 5.69451 1.60542C5.54733 1.33857 5.59928 1.25224 5.94559 1.18945Z" fill="#FCB009"/>
<path d="M20.2925 25.4727C20.5955 26.2575 20.8986 27.0267 20.9332 27.89C20.9678 28.7455 21.0284 29.601 20.9072 30.4565C20.8899 30.5742 20.8553 30.6841 20.8466 30.8018C20.8206 31.312 20.4657 31.5003 19.9722 31.5474C20.0414 31.6573 20.1453 31.5945 20.2232 31.6024C20.3098 31.6181 20.3964 31.6102 20.483 31.6181C20.4916 31.6965 20.431 31.7515 20.3618 31.7593C19.5479 31.8457 18.8034 32.1596 18.0069 32.3244C17.7991 32.293 17.7212 32.1988 17.8597 32.034C18.3012 31.516 18.1454 30.8646 18.3445 30.2917C18.3705 30.2053 18.3272 30.1111 18.2839 30.0327C18.1194 29.7501 18.1367 29.4597 18.232 29.1693C18.7947 28.3531 19.3228 27.5211 19.8077 26.6735C20.0155 26.2811 20.0674 25.8494 20.2925 25.4727Z" fill="#EC7C55"/>
<path d="M16.5943 10.3566C16.5683 10.8589 16.274 11.2435 15.9277 11.6045C15.616 11.7929 15.3995 12.0676 15.0879 12.2559C14.2308 12.7818 13.3823 12.8367 12.4646 12.4129C11.3304 11.8949 10.8542 10.906 11.2092 9.77579C11.3997 9.68945 11.5728 9.76009 11.746 9.82288C12.5685 10.1525 13.3736 10.2232 14.1615 9.73654C14.3173 9.64236 14.5078 9.57957 14.6983 9.61881C15.2437 9.72085 15.8065 9.72084 16.3432 9.91706C16.5943 10.0269 16.6809 10.129 16.5943 10.3566Z" fill="#E10733"/>
<path d="M7.84244 5.3335C8.0156 5.54541 7.90305 5.78086 7.92902 6.00847C7.94634 6.16544 7.95499 6.32241 7.92902 6.47153C7.89439 6.6756 8.05889 6.80902 8.11083 6.98169C8.20607 7.28778 8.44849 7.01308 8.60433 7.06802C8.96795 7.1936 9.35755 7.06802 9.72118 7.25639C10.0502 7.42906 10.1974 7.07587 10.3705 6.91105C10.4917 6.78547 10.5264 6.58926 10.6043 6.42444C10.6302 7.01308 10.4225 7.57818 10.3445 8.15112C10.1541 8.99876 9.84239 9.82286 9.91165 10.7019C9.92897 10.8981 9.94628 11.0865 10.0242 11.2748C10.1108 11.4554 10.1368 11.6516 10.1108 11.8478C10.0675 12.1696 9.88568 12.2795 9.53937 12.1696C9.36621 12.1146 9.19306 12.0361 9.01124 12.0126C8.77748 11.9577 8.64762 11.8007 8.53506 11.6202C8.11949 10.953 7.80781 10.2467 7.61734 9.50107C7.57405 9.33625 7.53942 9.17143 7.53942 9.00661C7.47016 7.88427 7.78184 6.77763 7.70392 5.65528C7.71258 5.53756 7.73855 5.41983 7.84244 5.3335Z" fill="#FB850C"/>
<path d="M7.84269 5.33365C7.9639 6.59726 7.60028 7.83733 7.66954 9.09309C7.41846 9.0617 7.47907 8.87334 7.47041 8.73206C7.45309 8.31609 7.46175 7.90012 7.46175 7.48415C7.47041 7.24869 7.41846 7.08387 7.10678 7.05248C6.86436 7.03678 6.69987 6.88766 6.55269 6.71499C6.45745 6.59726 6.32758 6.51878 6.20638 6.67575C5.9553 7.00539 5.70422 7.01324 5.40986 6.72284C5.36657 6.67575 5.28865 6.66005 5.21939 6.63651C5.1761 6.62081 5.15013 6.58942 5.13281 6.55017C5.13281 5.93014 5.28865 5.33365 5.43583 4.72147C5.61765 3.95231 5.61765 3.11252 5.53973 2.30412C5.49644 1.85675 5.53973 1.39369 5.18476 0.993417C5.21939 0.97772 5.24536 0.954174 5.27999 0.938477C5.49644 1.01696 5.71288 1.09545 5.92933 1.17393C5.66094 1.26027 5.6263 1.38584 5.80812 1.59775C6.08517 1.90384 6.45745 2.1236 6.66524 2.49248C7.20202 3.41076 7.53101 4.36828 7.84269 5.33365Z" fill="#ED6208"/>
<path d="M3.93652 29.1774C3.94518 29.0989 3.95384 29.0282 3.97981 28.887C4.07505 29.1303 4.14431 29.3186 4.12699 29.5148C4.10968 29.6561 4.19626 29.7425 4.29149 29.8523C4.89753 30.5508 5.28714 31.3435 5.5209 32.2069C5.67674 32.7641 5.91915 33.29 6.07499 33.8472C6.23083 34.4123 6.42996 34.9696 6.6464 35.519C6.86285 36.0605 6.91479 36.6178 6.88882 37.1828C6.63775 37.1907 6.55983 37.0023 6.43862 36.8689C6.12694 36.5236 5.91049 36.1076 5.56418 35.7858C5.46029 35.7152 5.34774 35.6916 5.21787 35.6838C5.07935 35.5661 4.95814 35.4405 4.88022 35.2835C4.75035 35.001 4.5772 34.7655 4.32612 34.5693C4.6378 34.4751 4.5772 34.2711 4.49062 34.0748C4.0231 33.1252 4.11834 32.1206 4.06639 31.1238C4.10968 30.7078 4.12699 30.2997 4.05773 29.8837C3.88458 29.664 3.97981 29.4128 3.93652 29.1774Z" fill="#E07B5D"/>
<path d="M4.88969 17.2474C4.85506 17.5849 4.77714 17.9145 4.56069 18.1971C4.42217 18.3855 4.49143 18.6052 4.48277 18.8093C4.46546 19.241 4.53472 19.6805 4.38754 20.1121C4.17109 19.6569 4.16243 19.1625 3.98062 18.7073C3.53042 17.5771 3.38323 16.4076 3.5131 15.2147C3.59102 14.4376 3.72954 13.6685 4.11914 12.9621C4.31827 12.6011 4.67324 12.452 5.0715 12.4912C5.42647 12.5226 5.89399 12.4441 6.00654 12.9307C5.98057 13.331 5.76412 13.6371 5.47842 13.9196C4.83774 14.5397 4.64727 15.2539 4.82043 16.0858C4.907 16.4626 4.89835 16.8628 4.88969 17.2474Z" fill="#F1A17D"/>
<path d="M17.6167 3.44979C16.5172 3.71664 15.8245 4.39946 15.2791 5.2628C14.9414 5.7965 14.8808 6.41654 14.5086 6.94239C14.3181 7.20924 14.1449 7.19354 13.9718 6.99733C13.7727 6.76187 13.4956 6.64414 13.2186 6.57351C12.3268 6.3302 12.2229 5.60029 12.8463 5.02734C12.9848 4.90177 13.2272 4.79189 13.0454 4.54073C13.1666 4.27388 13.4177 4.10906 13.6255 3.91285C13.8592 3.81867 14.093 3.72449 14.3008 3.58322C14.7163 3.31637 15.1492 3.23788 15.6081 3.53612C15.9977 3.77943 16.3959 3.73234 16.7509 3.45764C17.0453 3.23788 17.3656 3.08876 17.7639 3.1123C17.9024 3.29282 17.7985 3.387 17.6167 3.44979Z" fill="#FC9709"/>
<path d="M9.98798 1.62893C10.3949 0.820536 11.1568 0.381021 11.9966 0.0278389C12.213 -0.066343 12.4035 0.0984753 12.5766 0.224051C13.1048 0.59293 13.3385 1.15017 13.6156 1.67602C13.6242 1.69956 13.6242 1.73096 13.6415 1.7545C13.9099 2.36669 13.9099 2.36669 13.2087 2.5786C13.1654 2.57075 13.1134 2.57075 13.0874 2.59429C12.4641 3.10445 11.7195 3.01811 11.0442 2.79051C10.5074 2.60999 10.1352 2.17048 9.98798 1.62893Z" fill="#F39417"/>
<path d="M19.3656 4.62693C19.3483 4.09323 19.4955 3.86562 19.9803 3.66156C20.4045 3.48104 20.7249 3.65371 21.0192 3.90486C21.556 4.36793 21.9456 4.90162 22.2227 5.53736C22.7594 6.77742 23.0278 8.04889 23.0538 9.36744C23.0625 9.86975 22.9413 10.3721 23.0711 10.8822C23.0884 10.9607 23.0971 11.0863 22.9499 11.0863C22.8547 11.0863 22.8201 10.9842 22.8201 10.9058C22.8027 10.3721 22.5257 9.90899 22.3698 9.40668C22.3266 9.10844 22.1794 8.84159 22.0928 8.55119C22.0062 8.2608 21.9629 7.96255 21.9283 7.67216C21.8158 6.50273 21.1404 5.60015 20.266 4.7996C20.2054 4.74466 20.1188 4.70541 20.0669 4.64263C19.8851 4.42287 19.7119 4.36007 19.5041 4.61908C19.4868 4.67402 19.4175 4.66617 19.3656 4.62693Z" fill="#F2AB8B"/>
<path d="M24.0232 12.8602C23.9193 12.8131 23.7808 12.7503 23.7289 12.8838C23.6077 13.2055 23.2527 13.441 23.322 13.8413C23.3739 14.1317 22.9583 14.375 23.1921 14.6968C22.9237 14.7831 22.8804 14.9636 22.7852 15.1991C22.5861 15.7092 22.6813 16.2586 22.4475 16.7374C22.2744 17.0984 22.3004 17.4594 22.2917 17.8283C22.283 18.0088 22.1532 18.103 22.0146 18.1894C22.1359 17.1377 22.283 16.0938 22.638 15.0813C22.993 14.061 23.2873 13.0329 23.6942 12.0283C24.4388 10.1839 24.3003 8.41009 23.3826 6.65202C22.9237 5.76514 22.4475 4.87825 22.2051 3.91288C22.2051 3.73237 22.2051 3.55185 22.2051 3.37134C22.4389 4.16404 23.0709 4.79192 23.3306 5.54538C23.5384 6.14972 23.9886 6.62062 24.2137 7.20926C24.4475 7.80575 24.6726 8.41009 24.8284 9.03012C24.9583 9.57167 24.863 10.1211 24.889 10.6626C24.6899 11.0629 24.5947 11.5024 24.4561 11.9184C24.1444 12.1695 24.2916 12.5934 24.0232 12.8602Z" fill="#D4896A"/>
<path d="M8.88003 19.2805C9.05319 19.4767 8.81943 19.5788 8.73285 19.6729C8.25667 20.2145 7.97962 20.8424 7.78915 21.4859C7.6766 21.8705 7.69392 22.2943 8.02291 22.6318C8.82808 23.4402 9.04453 24.4291 9.13111 25.4651C9.1744 26.0224 8.95795 26.4854 8.47312 26.8386C8.24801 27.0034 8.03157 27.1683 7.82378 27.3488C7.68526 27.4665 7.59868 27.443 7.55539 27.2781C7.65063 27.0427 7.7372 26.8151 7.8411 26.5875C7.92768 26.3991 7.97097 26.1872 7.89305 26.0145C7.66794 25.4494 7.65928 24.8608 7.62465 24.28C7.59868 23.8562 7.287 23.503 7.33029 23.0792C7.4515 21.9882 7.65063 20.9209 8.33459 19.9869C8.51641 19.7357 8.60298 19.4453 8.88003 19.2805Z" fill="#E27754"/>
<path d="M16.5945 10.3567C16.5512 9.89359 16.0751 9.98777 15.798 9.90144C15.495 9.79941 15.1314 9.80725 14.7937 9.73662C14.5686 9.68953 14.3781 9.73662 14.1877 9.8622C13.4085 10.3724 12.5773 10.2703 11.7548 9.96423C11.5817 9.90144 11.4085 9.8622 11.2354 9.80726C11.0795 9.54826 11.0709 9.28141 11.2354 9.0224C11.2873 9.11659 11.3306 9.21077 11.3912 9.2971C11.6077 9.64244 11.902 9.89359 12.3695 9.88574C12.586 9.88574 12.8024 9.8622 13.0189 9.88574C13.8673 9.99562 14.4301 9.35204 14.4994 8.64568C14.5513 8.10413 14.7677 7.95501 15.3651 8.09628C15.6508 8.16692 15.9192 8.2297 16.1616 8.0021C16.2049 7.95501 16.3002 7.90791 16.3521 7.9707C16.6898 8.33958 16.7244 8.06488 16.785 7.81373C16.7937 7.79018 16.8543 7.77449 16.8976 7.75879C17.0101 7.89221 16.9582 8.03349 16.9322 8.17476C16.9841 8.92037 16.8716 9.65029 16.5945 10.3567Z" fill="#ED2F1B"/>
<path d="M16.0744 31.4926C16.5938 31.2022 16.9315 30.7627 17.2172 30.3075C17.3471 30.0956 17.7107 30.1034 17.6847 29.8052C17.8752 29.7973 17.9012 29.656 17.9271 29.5305C17.9618 29.3656 18.057 29.2479 18.2128 29.1694C18.4899 30.0171 18.4206 30.8647 18.1955 31.7202C18.1522 31.8772 18.0743 32.0027 17.9185 32.0891C17.7886 32.1676 17.8406 32.2304 17.9704 32.2618C17.754 32.56 17.3557 32.56 17.0527 32.717C16.5938 32.9524 16.0744 33.078 15.5895 33.2899C15.3298 33.3998 15.0701 33.3998 15.0354 33.0466C15.0181 32.7955 15.1826 32.6385 15.3471 32.4737C15.6501 32.1676 15.9012 31.8536 16.0744 31.4926Z" fill="#DC5A4E"/>
<path d="M19.3646 4.62693C19.4079 4.60339 19.4858 4.58769 19.5031 4.54845C19.6763 4.17957 19.8235 4.32869 20.0832 4.50921C20.9663 5.14494 21.4857 5.99258 21.91 6.91085C21.9706 7.04428 22.0398 7.16986 22.0312 7.31898C22.0139 7.9861 22.187 8.62968 22.4208 9.25757C22.4468 9.3282 22.4381 9.38314 22.3688 9.42238C21.7888 8.17447 20.7671 7.2091 19.8667 6.1731C19.4598 5.69434 19.2434 5.21557 19.3646 4.62693Z" fill="#DE8965"/>
<path d="M6.27455 19.759C6.18797 20.3398 6.11005 20.9206 5.79837 21.4621C5.75508 21.4307 5.69448 21.4072 5.69448 21.3837C5.68582 20.6773 5.47803 19.9866 5.43474 19.2881C5.3828 18.3855 5.67716 17.5143 5.90226 16.6353C5.98018 16.3292 6.62086 15.9603 6.96717 16.0152C7.32214 16.0702 7.54724 16.2821 7.58187 16.6196C7.34811 17.067 6.93254 17.4044 6.69012 17.8518C6.63817 17.946 6.52562 18.0166 6.52562 18.1265C6.51696 18.6838 6.43904 19.2253 6.27455 19.759Z" fill="#EDA184"/>
<path d="M19.321 9.02224C18.9574 8.81033 18.9747 8.48069 19.0093 8.15105C19.1651 7.6409 19.5374 7.54672 19.9963 7.9156C20.4552 8.28448 20.914 8.66121 21.1997 9.17136C21.2517 9.26555 21.3382 9.33618 21.4248 9.40682C21.8923 10.6626 22.1261 12.0518 21.9443 12.7346C21.6759 12.405 21.6586 12.0361 21.5114 11.7221C21.3556 11.3925 21.0612 11.157 20.9054 10.8353C20.9313 10.6704 20.8188 10.537 20.7235 10.4271C20.2907 9.93267 19.8491 9.44606 19.321 9.02224Z" fill="#EB9776"/>
<path d="M11.5303 12.9387C11.6429 13.1035 12.0498 12.8681 12.0065 13.1977C11.9719 13.4567 11.6602 13.4489 11.4438 13.4724C10.1451 13.598 8.89838 13.4881 7.75556 12.8445C6.63871 12.2245 5.82488 11.3612 5.31407 10.2859C4.90716 9.41473 4.81192 8.4729 4.8985 7.52323C4.93313 7.18574 4.90716 6.84826 5.15823 6.55786C5.15823 6.57356 5.16689 6.58926 5.18421 6.5971C5.36602 6.82471 5.32273 7.07587 5.24481 7.31132C5.063 7.85287 5.08897 8.38657 5.27078 8.92027C5.60844 10.435 6.26643 11.7457 7.89408 12.4835C8.18845 12.6169 8.43086 12.8602 8.75986 12.5227C8.88107 12.3972 8.87241 12.2637 8.92436 12.1303C8.94167 12.0989 8.96765 12.0675 9.01093 12.0518C9.39188 12.1617 9.63429 12.4443 9.95463 12.6248C10.4048 12.8838 10.8464 13.08 11.3918 12.9073C11.4264 12.8916 11.4871 12.8995 11.5303 12.9387Z" fill="#B51F26"/>
<path d="M4.88919 17.2472C4.69006 16.3681 4.49959 15.4813 4.82859 14.6022C4.91517 14.3668 5.11429 14.1627 5.29611 13.9665C5.58181 13.6526 5.93678 13.3779 5.89349 12.9148C5.93678 12.9226 5.97141 12.9305 6.0147 12.9305C6.47356 13.7232 6.22249 14.4688 5.83289 15.1987C5.48658 15.8737 5.20087 16.5644 4.88919 17.2472Z" fill="#DB8162"/>
<path d="M17.7982 3.13589C17.3999 3.26931 17.0017 3.38704 16.6727 3.64604C16.3264 3.92074 15.9454 3.84226 15.5991 3.66174C15.0363 3.37919 14.7506 3.36349 14.3004 3.73238C14.0927 3.90504 13.8849 3.94429 13.6338 3.91289C13.9022 3.5754 14.3091 3.40274 14.6987 3.21437C15.6684 2.74346 16.6813 2.49231 17.7895 2.58649C17.9627 2.60219 18.1358 2.61003 18.2917 2.67282C18.2657 2.94752 18.1705 3.16728 17.7982 3.13589Z" fill="#F7B729"/>
<path d="M9.9887 1.62891C10.2484 1.91145 10.4216 2.24894 10.7333 2.50009C10.9584 2.68061 11.1748 2.7277 11.4345 2.76694C11.9627 2.84543 12.4821 2.92392 12.9323 2.56288C13.0189 2.49225 13.1142 2.4844 13.2007 2.57073C12.4389 3.07304 11.98 3.76371 11.677 4.55641C11.6683 4.57995 11.6597 4.6035 11.6423 4.62705C11.5731 4.76832 11.5038 4.98023 11.3307 4.95668C11.1488 4.94099 11.2181 4.72123 11.1921 4.5878C11.0623 4.03056 11.1142 3.44192 10.7852 2.92391C10.6121 2.64921 10.335 2.46085 10.1445 2.20185C10.0233 2.02918 9.79823 1.88006 9.9887 1.62891Z" fill="#DD5D1C"/>
<path d="M11.5291 12.9385C10.9751 13.2053 10.4816 13.0797 9.99673 12.7815C9.64176 12.5617 9.28679 12.342 8.96645 12.0751C8.92316 12.028 8.9145 11.981 8.96645 11.926C9.20887 11.8789 9.408 11.9731 9.60713 12.083C9.84089 12.2164 9.97075 12.1301 10.014 11.8789C10.0573 11.5964 9.86686 11.3531 9.84954 11.0941C9.81491 10.2778 9.76297 9.45374 10.1612 8.68458C10.2478 8.51191 10.0227 8.25291 10.3517 8.15088C10.4383 8.73952 10.1439 9.27322 10.066 9.83831C9.89283 11.0941 10.3084 12.1065 11.4512 12.86C11.4859 12.8757 11.5032 12.9071 11.5291 12.9385Z" fill="#E26A34"/>
<path d="M27.7108 29.7189C27.6415 29.4677 27.7021 29.2322 27.7541 28.9732C27.8839 28.4082 27.9099 27.8117 27.7281 27.2387C27.6588 27.0111 27.503 26.9091 27.2086 26.9562C26.9749 26.9954 26.7325 26.9562 26.5247 26.8149C26.4814 26.4225 26.6113 26.0301 26.542 25.6376C26.5247 25.5592 26.6199 25.5121 26.7065 25.4885C27.2086 25.8809 27.5809 26.3519 27.8147 26.9169C27.8839 27.0896 27.9619 27.2466 27.9186 27.4271C27.9705 27.8352 27.9705 28.2433 27.9186 28.6515C27.9792 29.0282 27.8666 29.3735 27.7108 29.7189Z" fill="#2A0F2D"/>
<path d="M11.236 9.01432C11.236 9.27332 11.236 9.54017 11.236 9.79917C11.1668 10.3564 11.2447 10.898 11.3919 11.4395C11.4438 11.6122 11.6083 11.675 11.7209 11.7849C12.2057 12.2872 12.8897 12.5462 13.5563 12.6482C13.9632 12.711 14.4913 12.5148 14.9242 12.2636C15.2792 12.0596 15.4783 11.675 15.9199 11.6043C15.5562 12.295 13.8507 13.0956 12.8637 12.6874C12.1797 12.4049 11.5304 12.1459 11.2101 11.4788C11.1494 11.3453 11.0629 11.2119 11.0629 11.0785C11.0715 10.1838 10.9157 9.28117 11.1581 8.39429C11.2707 8.59835 11.1754 8.81811 11.236 9.01432Z" fill="#A62A4A"/>
<path d="M6.2739 19.759C6.19598 19.7041 6.17867 19.6178 6.2133 19.5471C6.41243 19.1155 6.31719 18.6445 6.38645 18.205C6.46437 17.7577 6.81934 17.4045 7.13102 17.0591C7.26089 16.9179 7.33015 16.6903 7.57257 16.6196C7.68512 17.169 7.43404 17.6478 7.16565 18.0952C6.83666 18.6445 6.58558 19.2096 6.2739 19.759Z" fill="#CA795E"/>
<path d="M17.798 3.13606C18.0837 3.08897 18.1183 2.81427 18.3001 2.673C18.5685 2.6416 18.5512 2.79858 18.482 2.93985C18.4127 3.08112 18.3261 3.2224 18.2309 3.34797C17.5729 4.21131 17.3045 5.18453 17.2785 6.22054C17.2612 6.88767 17.0967 7.53125 16.9409 8.17483C16.9322 8.03356 16.9149 7.90013 16.9062 7.75885C16.9149 7.48415 16.9409 7.20946 16.9236 6.93476C16.8976 6.44815 16.9495 5.98508 17.2179 5.55341C17.2526 5.49847 17.2612 5.42784 17.2612 5.36505C17.2439 4.78425 17.3997 4.22701 17.6075 3.68546C17.6335 3.61482 17.6162 3.52849 17.6162 3.45C17.6681 3.34012 17.8067 3.26949 17.798 3.13606Z" fill="#CF8034"/>
<path d="M3.64253 20.7009C3.24428 20.5439 3.07112 20.1908 2.91528 19.8847C2.51702 19.1234 2.20534 18.3228 2.30924 17.4516C2.3179 17.3653 2.3179 17.2711 2.35253 17.1848C2.38716 17.0906 2.42179 16.9572 2.56897 16.9886C2.69884 17.0121 2.63823 17.1377 2.64689 17.224C2.66421 17.3339 2.61226 17.4595 2.71615 17.5615C2.73347 18.676 3.08844 19.712 3.64253 20.7009Z" fill="#BD6351"/>
<path d="M6.20503 25.873C6.3955 25.5199 6.25697 25.2216 6.12711 24.8606C5.96261 24.3897 5.7808 23.9423 5.52106 23.5106C5.50375 23.4792 5.55569 23.4164 5.57301 23.3772C6.34355 24.5231 6.9063 25.7475 7.26127 27.0503C7.24396 27.1131 7.24396 27.2151 7.20067 27.2308C7.10543 27.2622 7.05349 27.1759 7.0102 27.1131C6.7851 26.7599 6.56865 26.4146 6.36087 26.0536C6.32623 25.9751 6.28295 25.9201 6.20503 25.873Z" fill="#BF5F51"/>
<path d="M21.4257 9.40706C21.2439 9.41491 21.1486 9.39136 21.0621 9.1873C20.8976 8.75563 20.4733 8.48094 20.1357 8.15915C20.1011 8.11991 20.0404 8.10421 19.9972 8.07281C19.5296 7.69608 19.3219 7.71178 19.0102 8.15915C18.9929 7.93939 18.9236 7.65684 19.2093 7.57836C19.547 7.48418 19.9625 7.40569 20.2482 7.62545C20.8023 8.05712 21.1746 8.63006 21.417 9.25794C21.4343 9.30503 21.4257 9.35997 21.4257 9.40706Z" fill="#F1BF9E"/>
<path d="M19.3232 9.02218C19.3925 8.92015 19.4791 8.96724 19.531 9.03002C19.9639 9.52448 20.5094 9.93261 20.847 10.4977C20.9076 10.5919 21.0721 10.6939 20.899 10.8273C20.5267 10.1288 19.7128 9.72854 19.3232 9.02218Z" fill="#885242"/>
<path d="M8.5166 39.2314C8.59452 39.2 8.6811 39.1764 8.75902 39.145C8.67244 39.4982 8.98412 39.6709 9.16593 39.8985C9.39969 40.1732 9.67674 40.4165 9.92782 40.6755C9.97976 40.7304 10.1269 40.7775 9.98842 40.8795C9.40835 40.3929 8.83694 39.9063 8.5166 39.2314Z" fill="#885D51"/>
<path d="M1.75586 23.8481C2.19741 24.2327 2.42251 24.7037 2.47445 25.2531C2.24069 24.79 1.99828 24.3191 1.75586 23.8481Z" fill="#F49D77"/>
<path d="M4.04102 29.8838C4.17954 30.2919 4.15357 30.7079 4.04967 31.1239C4.04967 30.7079 4.04967 30.2998 4.04102 29.8838Z" fill="#F49D77"/>
<path d="M27.9287 28.6514C27.9287 28.2432 27.9287 27.8351 27.9287 27.427C28.0066 27.8351 28.0412 28.2432 27.9287 28.6514Z" fill="#4E0869"/>
<path d="M9.99728 4.23467C9.70291 4.14833 9.63364 3.94427 9.6423 3.69312C9.89338 3.81084 9.95399 4.01491 9.99728 4.23467Z" fill="#EDC86A"/>
<path d="M10.3441 5.17648C10.0584 5.09014 10.2056 4.87039 10.1709 4.70557C10.3441 4.83114 10.3787 4.99596 10.3441 5.17648Z" fill="#EDC86A"/>
<path d="M10.1698 4.70553C9.88409 4.6192 10.0399 4.39944 9.99664 4.23462C10.1784 4.3602 10.1958 4.52501 10.1698 4.70553Z" fill="#EDC86A"/>
<path d="M10.9659 32.6069C11.1391 32.8267 10.914 33.172 11.2343 33.3447C11.5806 33.6194 11.8317 33.9569 12.1001 34.2944C12.1867 34.4042 12.2992 34.5298 12.1607 34.6711C12.0654 34.7339 12.0741 34.8359 12.0914 34.9222C12.1953 35.4402 11.8057 35.6443 11.3815 35.817C11.0958 35.7699 10.9486 35.5737 10.888 35.3539C10.7495 34.8045 10.5763 34.2473 10.7928 33.6743C10.9226 33.329 10.9746 32.9758 10.9659 32.6069Z" fill="#E67768"/>
<path d="M5.58153 35.7622C5.66811 35.5425 5.70274 35.7465 5.72872 35.7779C6.09234 36.2567 6.40402 36.7669 6.87154 37.175C6.94946 37.4418 7.29577 37.5674 7.31308 37.8657C7.1659 37.85 7.13127 38.0383 6.97543 38.0069C6.70704 37.536 6.3867 37.1044 6.06637 36.6648C5.86724 36.3901 5.52959 36.1625 5.58153 35.7622Z" fill="#92574B"/>
<path d="M14.0116 20.3483C14.3684 20.8341 14.7262 21.3213 15.1914 21.7292C16.5074 23.1104 18.222 23.958 20.066 24.6408C20.0807 24.6319 20.099 24.6274 20.1167 24.623C20.1615 24.612 20.2033 24.6017 20.1785 24.5231C19.9967 23.8873 19.7456 23.2752 19.2868 22.7493C18.5768 22.4668 17.9188 22.1214 17.3388 21.6505L17.3342 21.6644L17.3299 21.6507C17.3299 21.635 17.3299 21.6193 17.3212 21.6115C15.6503 20.4028 14.6547 18.7782 13.8841 17.0201C13.8432 16.9284 13.7955 16.8367 13.7477 16.7446C13.6236 16.5058 13.4984 16.2647 13.4859 16.0155C13.4704 15.6378 13.3106 15.31 13.1535 14.9877C13.1343 14.9483 13.1151 14.9089 13.0963 14.8696C12.975 14.6106 12.698 14.4929 12.3863 14.5243C12.04 14.5635 11.737 14.8931 11.737 15.1914C11.7436 15.6774 11.9223 16.1267 12.0989 16.5709C12.1533 16.7077 12.2075 16.8441 12.2564 16.9808C12.6547 18.0875 13.1482 19.1784 13.8668 20.1516C13.9152 20.217 13.9634 20.2827 14.0116 20.3483Z" fill="#9E30A4"/>
<path d="M8.75897 39.145C9.92777 38.6663 10.984 38.0227 12.0056 37.332C12.2293 37.2721 12.3992 37.1419 12.5697 37.0112C12.6897 36.9193 12.8099 36.8271 12.9493 36.7591C13.0878 36.6649 13.2091 36.5629 13.235 36.398C13.235 36.3949 13.2351 36.3917 13.2351 36.3885C13.2895 36.3735 13.3384 36.3451 13.3879 36.3165C13.4144 36.3012 13.441 36.2858 13.4687 36.2723C13.8667 35.9515 14.3177 35.6948 14.7676 35.4387C15.0222 35.2937 15.2765 35.149 15.5206 34.993C15.7803 34.8281 16.04 34.6712 16.3257 34.5456C16.4358 34.4984 16.5458 34.4508 16.6559 34.4032C17.4976 34.0389 18.3419 33.6735 19.2607 33.486C19.3213 33.3055 19.4771 33.227 19.6763 33.2114C19.9979 33.1927 20.2998 33.1028 20.6017 33.0129C20.9339 32.914 21.266 32.8152 21.6243 32.8111C21.7208 32.8111 21.8132 32.7691 21.9042 32.7278C21.9336 32.7144 21.9628 32.7012 21.992 32.6894C22.005 32.6882 22.018 32.687 22.031 32.6857C22.5072 32.5287 23.0007 32.5366 23.4942 32.5601C23.5211 32.5375 23.5471 32.5126 23.5733 32.4875C23.6653 32.3994 23.7596 32.309 23.9011 32.309C24.303 32.295 24.6566 32.1496 25.0173 32.0014C25.0605 31.9836 25.1043 31.9656 25.1478 31.948C26.2907 31.4692 27.2171 30.8099 27.7019 29.719C27.6759 29.6012 27.7019 29.4835 27.7365 29.3736C27.927 28.8085 27.9356 28.2277 27.9097 27.6469C27.8837 27.0348 27.7192 26.8856 27.0439 26.8464C26.9856 26.8438 26.9283 26.8376 26.8713 26.8314C26.7591 26.8192 26.6479 26.8072 26.5331 26.8228C26.2907 27.0034 26.1089 27.2074 26.2128 27.5214C26.2202 27.6292 26.2818 27.7225 26.343 27.815C26.4242 27.9381 26.5046 28.0597 26.4552 28.212C26.441 28.2595 26.427 28.307 26.413 28.3545C26.2902 28.771 26.1671 29.1886 25.9184 29.562C25.7193 29.8681 25.4595 30.1114 25.0959 30.2841C25.053 30.3044 25.0064 30.3225 24.9591 30.3409C24.7866 30.408 24.6029 30.4795 24.5418 30.6765L23.5808 31.0532C23.5805 31.0534 23.5802 31.0536 23.5799 31.0538C23.5803 31.051 23.5806 31.0481 23.5809 31.0452C23.1821 30.9738 22.8182 31.0783 22.4566 31.1822C22.2216 31.2498 21.9876 31.317 21.7455 31.3356C21.6921 31.3402 21.639 31.3444 21.5861 31.3486C21.1932 31.3797 20.8162 31.4096 20.4728 31.6103C19.6157 31.728 18.7845 31.9713 17.9794 32.2538C17.5261 32.4339 17.0698 32.6112 16.6123 32.7891C16.2921 32.9135 15.9712 33.0382 15.6504 33.1643C15.6396 33.1681 15.6289 33.172 15.6181 33.1758C15.3875 33.2588 15.1712 33.3366 15.105 32.9916C15.0155 32.9791 14.948 33.0162 14.8762 33.0556C14.8577 33.0658 14.8388 33.0761 14.8193 33.0858C14.4875 33.3956 14.1188 33.6668 13.7506 33.9377C13.4751 34.1404 13.1999 34.343 12.9405 34.5613C12.7556 34.715 12.5569 34.8252 12.3139 34.8641C12.2964 34.7696 12.2664 34.6846 12.1528 34.6478C11.9883 34.6949 11.9797 34.8283 11.9883 34.9382C12.0143 35.2522 11.8584 35.4641 11.5901 35.6289C11.5035 35.6838 11.4342 35.7466 11.3909 35.8329C10.3953 36.712 9.25247 37.3713 7.97978 37.8736C7.76333 37.9599 7.54689 38.0305 7.33044 37.8814C7.23754 37.8253 7.15695 37.8584 7.07765 37.891C7.02394 37.913 6.97082 37.9349 6.91487 37.9285C6.85973 37.928 6.80451 37.9277 6.7493 37.9274C6.01563 37.9237 5.28428 37.92 4.78507 37.2849C4.72446 37.2064 4.62923 37.1672 4.53399 37.1358C4.51759 37.1291 4.50331 37.1216 4.49088 37.1135C4.50317 36.6297 4.75174 36.2563 5.14839 35.9427C5.23496 35.872 5.31288 35.7936 5.26094 35.668C5.07055 35.4423 4.93591 35.1941 4.79938 34.9425C4.77457 34.8968 4.74945 34.8505 4.72416 34.8046C4.64624 34.6634 4.51637 34.5535 4.31724 34.5613C3.57268 35.0558 3.07053 35.6915 2.98395 36.5392C2.93201 37.0886 3.00993 37.6223 3.4255 38.0696C3.97094 38.9644 4.93225 39.2863 5.93655 39.4276C6.65514 39.5218 7.42568 39.561 8.13562 39.2471C8.20263 39.2167 8.28765 39.2222 8.37442 39.2279C8.42217 39.231 8.47046 39.2342 8.51656 39.2314C8.59702 39.265 8.64651 39.2265 8.69665 39.1875C8.71665 39.1719 8.73676 39.1562 8.75897 39.145Z" fill="#9E30A4"/>
<path d="M15.685 44.1748C15.6362 44.1627 15.5867 44.1504 15.5372 44.1366C15.3983 44.0874 15.3352 44.1565 15.2686 44.2294C15.2398 44.261 15.2102 44.2934 15.1736 44.3171C14.8219 44.3799 14.4703 44.3714 14.1187 44.3628C13.8989 44.3575 13.6791 44.3522 13.4593 44.3642C12.9225 44.3956 12.4983 44.1759 12.1001 43.8698C11.494 43.3989 11.2516 42.7788 11.1217 42.096C10.888 41.7742 10.6369 41.4681 10.256 41.2719L9.99623 41.1071C9.80575 41.0757 9.76247 41.217 9.76247 41.319C9.75648 41.509 9.73808 41.6997 9.71966 41.8907C9.65816 42.5281 9.59649 43.1674 9.99623 43.7834C10.6456 44.7881 11.4507 45.5964 12.8186 45.7299C12.8793 45.7299 12.9658 45.7534 13.0091 45.7927C13.1756 45.971 13.4016 45.9815 13.6236 45.9918C13.6554 45.9933 13.6875 45.9948 13.7191 45.9967C14.0172 46.0167 14.2977 45.9442 14.5741 45.8727C14.7312 45.8321 14.8869 45.7919 15.0437 45.7691C16.1952 45.6121 17.1735 45.1334 18.1345 44.5997C19.5457 43.7521 20.7323 42.7239 21.5115 41.3426L21.5084 41.328C21.5802 41.232 21.6262 41.1233 21.6717 41.0156C21.7113 40.922 21.7505 40.8291 21.8062 40.7462C22.1785 40.1105 22.3516 39.4277 22.4295 38.7213C22.5594 37.5048 22.317 36.3275 22.014 35.1502C21.8495 35.111 21.8148 35.213 21.7889 35.3229C21.7647 35.4323 21.7069 35.5226 21.6478 35.6151C21.622 35.6554 21.596 35.696 21.5724 35.7389C21.3918 36.0663 21.1487 36.3502 20.904 36.636C20.8203 36.7338 20.7364 36.8318 20.6547 36.9318C20.5768 37.0182 20.5768 37.1202 20.5854 37.2301C20.6172 37.6137 20.6134 37.9944 20.6095 38.3757C20.6071 38.6185 20.6047 38.8616 20.6114 39.1059C20.6201 39.412 20.5941 39.7024 20.395 39.9692C20.3128 40.0775 20.2887 40.1975 20.3391 40.3191C20.2584 40.4027 20.196 40.5009 20.2042 40.6205C19.9358 41.1228 19.6241 41.5937 19.2086 42.0097C18.2762 42.9318 17.1695 43.6357 15.9535 44.1951C15.9246 44.1986 15.8931 44.2108 15.8662 44.223C15.808 44.2054 15.747 44.1902 15.685 44.1748Z" fill="#9E30A4"/>
<path d="M10.9648 32.37C10.9756 32.4507 10.9863 32.5311 10.9669 32.6072C11.0168 32.7032 11.0083 32.8074 10.9996 32.9139C10.9963 32.9553 10.9929 32.9971 10.9929 33.0388C10.9939 33.0551 10.9945 33.0714 10.9952 33.0877C11.0002 33.2133 11.0051 33.3374 11.166 33.3999C11.495 33.4784 11.7894 33.3763 12.0664 33.2351C13.3391 32.5836 14.6638 32.0421 16.049 31.6026C16.3347 31.4613 16.5685 31.2729 16.7762 31.061C16.9059 30.928 17.0154 30.7816 17.1249 30.6352C17.2931 30.4102 17.4613 30.1853 17.7026 30.0093C17.7632 29.9622 17.7892 29.868 17.6853 29.8131L17.655 29.8107C17.2669 29.7799 16.88 29.7492 16.5425 30.0093C16.4559 30.0721 16.2914 30.1192 16.1789 30.0957C15.7369 30.0027 15.3613 30.1676 14.9994 30.3264C14.8722 30.3822 14.7466 30.4373 14.6205 30.4802C13.7287 30.7863 12.8543 31.1552 11.9972 31.5555C11.8945 31.602 11.7975 31.6604 11.7003 31.719C11.5022 31.8383 11.3032 31.9582 11.0535 31.9793C10.9286 32.0975 10.9467 32.2342 10.9648 32.37Z" fill="#9E30A4"/>
<path d="M23.6773 13.802C23.6686 13.5587 23.6686 13.3232 23.9284 13.1741C23.8418 13.386 23.7639 13.5979 23.6773 13.802Z" fill="#D4896A"/>
<path d="M24.4561 11.9181C24.508 11.4708 24.5599 11.0312 24.8889 10.6624C24.811 11.1019 24.6811 11.5257 24.4561 11.9181Z" fill="#F8A17B"/>
<path d="M12.0065 37.332C12.2749 37.1044 12.5433 36.8689 12.8723 36.7119C12.9069 36.7041 12.9415 36.7041 12.9502 36.7198C13.5389 37.8343 14.6038 38.3287 15.8679 38.5642C16.3873 38.6584 16.9154 38.7526 17.4522 38.7133C17.7206 38.6976 17.9544 38.7918 18.2054 38.8311C18.621 38.9802 18.9413 39.2627 19.279 39.5139C19.4781 39.5531 19.6167 39.6708 19.6946 39.8357C19.8158 40.1496 19.7032 40.44 19.4781 40.6519C19.2703 40.8481 18.95 40.8952 18.647 40.8167C17.7466 40.5656 16.8289 40.4086 15.9198 40.2124C14.5865 39.922 13.4091 39.3726 12.3701 38.5642C11.9372 38.2267 11.8507 37.8735 12.0931 37.4262C12.1364 37.3477 12.0584 37.3398 12.0065 37.332Z" fill="#F79A73"/>
<path d="M11.0278 42.033C10.7681 41.774 10.5084 41.515 10.2573 41.256C10.4651 41.1226 10.1014 41.0598 10.2226 40.9185C10.3698 40.9107 10.5343 40.9028 10.6469 41.0048C11.0798 41.4051 11.6425 41.6563 12.0927 42.0251C12.3871 42.2684 12.7767 42.3548 13.1057 42.5431C13.9541 43.0219 14.7333 43.5948 15.5472 44.1285C15.348 44.1207 15.426 44.3169 15.3134 44.3797C14.9931 44.2777 14.6641 44.3875 14.3351 44.364C13.8676 44.3248 13.5386 44.1128 13.2096 43.8617C12.517 43.328 11.9109 42.7315 11.2356 42.1821C11.1663 42.1272 11.1144 42.0644 11.0278 42.033Z" fill="#E39676"/>
<path d="M13.3818 36.2802C14.4554 35.4404 15.6329 34.734 16.9142 34.1846C17.4077 33.9727 17.9012 33.7765 18.4033 33.5803C18.6717 33.4782 18.9661 33.4939 19.2518 33.4861C19.3211 33.8785 19.0786 34.1846 18.8709 34.475C18.4033 35.1107 17.8839 35.7072 17.4164 36.3429C17.1047 36.7589 16.8449 37.1984 16.5592 37.6301C16.3861 37.74 16.2649 37.6065 16.135 37.5359C15.5203 37.2063 14.9316 36.8374 14.3861 36.4214C14.187 36.2723 14.0312 36.2174 13.7888 36.3508C13.5377 36.5078 13.503 36.4842 13.3818 36.2802Z" fill="#F49175"/>
<path d="M13.3829 36.2803C13.582 36.5157 13.7552 36.3038 13.885 36.2175C14.0668 36.0997 14.1274 36.084 14.3266 36.2332C15.0105 36.7747 15.7464 37.2692 16.5689 37.6381C16.7421 37.9128 17.0624 38.054 17.3308 38.2189C17.6425 38.4072 17.9282 38.6113 18.2052 38.8232C17.1057 38.8624 16.0322 38.7526 14.9759 38.4543C14.3093 38.2738 13.8504 37.8578 13.3482 37.4811C13.0799 37.2849 12.9154 37.018 12.8721 36.7041C12.9327 36.5942 13.1231 36.5707 13.1318 36.4137C13.2184 36.3823 13.253 36.2489 13.3829 36.2803Z" fill="#E76C48"/>
<path d="M2.57812 24.7509C2.47423 24.7352 2.4396 24.6567 2.43094 24.5939C2.40497 24.4605 2.54349 24.5233 2.60409 24.4998C2.69067 24.4684 2.73396 24.5233 2.73396 24.5939C2.7253 24.6803 2.68201 24.7431 2.57812 24.7509Z" fill="#F49D77"/>
<path d="M5.16643 9.02212C4.93267 8.42563 4.88938 7.83699 5.14045 7.2248C5.21837 7.03643 5.16643 6.80883 5.17508 6.60476C5.36555 6.50273 5.50408 6.58122 5.60797 6.72249C5.79844 6.98934 5.91965 6.89516 6.06683 6.68325C6.35254 6.29082 6.38717 6.29082 6.66422 6.6754C6.82006 6.88731 7.00187 6.98934 7.27026 6.97364C7.52133 6.95795 7.5906 7.06783 7.58194 7.27974C7.57328 7.7585 7.57328 8.24511 7.58194 8.72388C7.58194 8.84945 7.53865 8.99072 7.66851 9.09276C7.78972 9.79913 8.02348 10.4741 8.37845 11.1098C8.47369 11.2668 8.59489 11.4159 8.62953 11.6043C8.53429 11.6514 8.44771 11.6043 8.36979 11.5651C7.86764 11.0157 7.55596 10.3721 7.47804 9.6657C7.44341 9.37531 7.32221 9.24973 7.02784 9.18694C6.54301 9.08491 6.05817 9.19479 5.57334 9.15555C5.4175 9.1477 5.253 9.18694 5.16643 9.02212Z" fill="#EF3014"/>
<path d="M8.44689 11.5256C8.50749 11.5492 8.5681 11.5727 8.6287 11.6041C8.74126 11.7061 8.80186 11.8631 8.96636 11.9259C8.96636 11.973 8.96636 12.0201 8.96636 12.075L8.9577 12.0829C8.57676 12.13 8.41226 11.9495 8.44689 11.5256Z" fill="#B51F26"/>
<path d="M8.4481 11.5261C8.59528 11.7302 8.54333 12.0834 8.95891 12.0755C9.15803 12.4601 8.76844 12.5935 8.57796 12.8055C8.49139 12.8996 8.31823 12.8839 8.21434 12.8211C7.64293 12.4444 7.01091 12.1619 6.51742 11.6831C5.90272 11.0866 5.59104 10.3881 5.33996 9.64249C5.2707 9.43843 5.07157 9.26577 5.15815 9.02246C5.54775 9.03031 5.93735 9.04601 6.32695 9.03816C6.54339 9.03031 6.75118 9.01461 6.96762 9.05385C7.39185 9.12449 7.59098 9.27361 7.6083 9.72883C7.64293 10.396 8.03253 10.9767 8.4481 11.5261Z" fill="#E20B2B"/>
</svg>
