<svg viewBox="0 0 211 36" fill="none" xmlns="http://www.w3.org/2000/svg">
<path d="M21.6246 6.33555C21.1353 6.06924 20.6726 6 20.1886 6H18.6038H17.0189C16.5349 6 16.0722 6.06391 15.5829 6.33555C15.0511 6.62849 14.6948 6.92675 14.6948 7.37948C14.6948 7.87481 14.7799 8.05057 15.1841 8.88678C15.5882 9.72299 15.8914 10.4047 16.1094 10.5592C16.3275 10.7137 17.1306 10.6977 17.1306 10.6977H18.6038H20.077C20.077 10.6977 20.88 10.7137 21.0981 10.5592C21.3161 10.4047 21.6193 9.72299 22.0235 8.88678C22.4277 8.05057 22.5128 7.87481 22.5128 7.37948C22.5128 6.92675 22.1617 6.62316 21.6246 6.33555Z" fill="#FF884A"/>
<path d="M22.3266 26.7879L22.0288 27.0969C21.3374 27.8212 20.5982 28.4976 19.8217 29.1261L19.1782 29.6428C19.0877 29.7173 18.9707 29.7546 18.8537 29.7546H18.3485C18.2315 29.7546 18.1145 29.712 18.0241 29.6428L17.3805 29.1261C16.5987 28.4976 15.8648 27.8212 15.1734 27.0969L14.8756 26.7879C14.7586 26.6654 14.7054 26.495 14.732 26.3299L15.5085 21.2541L15.9286 18.5164L16.2211 16.5883L16.5456 14.4845L16.9657 11.7309C16.987 11.5924 17.104 11.4912 17.2476 11.4912H19.944C20.0823 11.4912 20.2046 11.5924 20.2259 11.7309L20.646 14.4845L20.9704 16.5883L21.263 18.5164L21.6831 21.2541L22.4596 26.3299C22.4968 26.5003 22.4436 26.6654 22.3266 26.7879Z" fill="#FF884A"/>
<path d="M35.8299 17.4247C35.8299 19.2356 35.0162 20.9347 33.5324 22.2023C32.0911 23.4326 30.1872 24.1144 28.1662 24.1144C26.1452 24.1144 24.2412 23.438 22.8 22.2023L21.6937 21.2596L21.2736 18.5219L23.97 20.8281C26.2835 22.8041 30.0436 22.8041 32.357 20.8281C33.4314 19.912 34.0217 18.703 34.0217 17.43C34.0217 16.1571 33.4314 14.9481 32.357 14.032C31.203 13.0413 29.6819 12.5513 28.1662 12.5513C26.6504 12.5513 25.1294 13.0466 23.9753 14.032L20.9811 16.5938L20.0025 17.4354L18.6038 18.6125L15.5191 21.2542L14.4129 22.197C12.9716 23.4273 11.0676 24.1091 9.04667 24.1091C7.02569 24.1091 5.12171 23.4326 3.68044 22.197C2.19661 20.9293 1.3829 19.2356 1.3829 17.4194C1.3829 15.6032 2.19661 13.9095 3.68044 12.6418C4.39842 12.024 5.23872 11.55 6.14816 11.2251C7.0576 10.9002 8.04149 10.7297 9.05198 10.7297C11.073 10.7297 12.9769 11.4062 14.4182 12.6418L16.5615 14.474L16.2371 16.5779L13.2429 14.016C12.0888 13.0306 10.5677 12.5353 9.05198 12.5353C7.53625 12.5353 6.0152 13.0306 4.86111 14.016C4.32396 14.474 3.90913 15.0066 3.62725 15.5819C3.34538 16.1571 3.19647 16.7803 3.19647 17.4141C3.19647 18.687 3.7868 19.8961 4.86111 20.8122C7.1746 22.7882 10.9347 22.7882 13.2482 20.8122L15.9446 18.5059L17.221 17.4141L18.6144 16.221L20.6673 14.4687L22.8106 12.6365C24.2412 11.4168 26.1452 10.7404 28.1662 10.7404C30.1872 10.7404 32.0911 11.4168 33.5324 12.6525C34.2717 13.2863 34.846 14.0266 35.2343 14.8362C35.6225 15.6405 35.8299 16.5193 35.8299 17.4247Z" fill="#F4DDD5"/>
<path d="M46.3135 19.967C46.3135 18.455 46.6105 17.114 47.2045 15.944C47.8165 14.774 48.6355 13.874 49.6615 13.244C50.7055 12.614 51.8665 12.299 53.1445 12.299C54.2605 12.299 55.2325 12.524 56.0605 12.974C56.9065 13.424 57.5815 13.991 58.0855 14.675V12.542H61.8925V27.5H58.0855V25.313C57.5995 26.015 56.9245 26.6 56.0605 27.068C55.2145 27.518 54.2335 27.743 53.1175 27.743C51.8575 27.743 50.7055 27.419 49.6615 26.771C48.6355 26.123 47.8165 25.214 47.2045 24.044C46.6105 22.856 46.3135 21.497 46.3135 19.967ZM58.0855 20.021C58.0855 19.103 57.9055 18.32 57.5455 17.672C57.1855 17.006 56.6995 16.502 56.0875 16.16C55.4755 15.8 54.8185 15.62 54.1165 15.62C53.4145 15.62 52.7665 15.791 52.1725 16.133C51.5785 16.475 51.0925 16.979 50.7145 17.645C50.3545 18.293 50.1745 19.067 50.1745 19.967C50.1745 20.867 50.3545 21.659 50.7145 22.343C51.0925 23.009 51.5785 23.522 52.1725 23.882C52.7845 24.242 53.4325 24.422 54.1165 24.422C54.8185 24.422 55.4755 24.251 56.0875 23.909C56.6995 23.549 57.1855 23.045 57.5455 22.397C57.9055 21.731 58.0855 20.939 58.0855 20.021ZM64.6123 19.967C64.6123 18.455 64.9093 17.114 65.5033 15.944C66.1153 14.774 66.9433 13.874 67.9873 13.244C69.0313 12.614 70.1923 12.299 71.4703 12.299C72.4423 12.299 73.3693 12.515 74.2513 12.947C75.1333 13.361 75.8353 13.919 76.3573 14.621V7.52H80.1913V27.5H76.3573V25.286C75.8893 26.024 75.2323 26.618 74.3863 27.068C73.5403 27.518 72.5593 27.743 71.4433 27.743C70.1833 27.743 69.0313 27.419 67.9873 26.771C66.9433 26.123 66.1153 25.214 65.5033 24.044C64.9093 22.856 64.6123 21.497 64.6123 19.967ZM76.3843 20.021C76.3843 19.103 76.2043 18.32 75.8443 17.672C75.4843 17.006 74.9983 16.502 74.3863 16.16C73.7743 15.8 73.1173 15.62 72.4153 15.62C71.7133 15.62 71.0653 15.791 70.4713 16.133C69.8773 16.475 69.3913 16.979 69.0133 17.645C68.6533 18.293 68.4733 19.067 68.4733 19.967C68.4733 20.867 68.6533 21.659 69.0133 22.343C69.3913 23.009 69.8773 23.522 70.4713 23.882C71.0833 24.242 71.7313 24.422 72.4153 24.422C73.1173 24.422 73.7743 24.251 74.3863 23.909C74.9983 23.549 75.4843 23.045 75.8443 22.397C76.2043 21.731 76.3843 20.939 76.3843 20.021ZM102.459 12.326C104.295 12.326 105.771 12.893 106.887 14.027C108.021 15.143 108.588 16.709 108.588 18.725V27.5H104.808V19.238C104.808 18.068 104.511 17.177 103.917 16.565C103.323 15.935 102.513 15.62 101.487 15.62C100.461 15.62 99.6422 15.935 99.0302 16.565C98.4362 17.177 98.1392 18.068 98.1392 19.238V27.5H94.3592V19.238C94.3592 18.068 94.0622 17.177 93.4682 16.565C92.8742 15.935 92.0642 15.62 91.0382 15.62C89.9942 15.62 89.1662 15.935 88.5542 16.565C87.9602 17.177 87.6632 18.068 87.6632 19.238V27.5H83.8832V12.542H87.6632V14.351C88.1492 13.721 88.7702 13.226 89.5262 12.866C90.3002 12.506 91.1462 12.326 92.0642 12.326C93.2342 12.326 94.2782 12.578 95.1962 13.082C96.1142 13.568 96.8252 14.27 97.3292 15.188C97.8152 14.324 98.5172 13.631 99.4352 13.109C100.371 12.587 101.379 12.326 102.459 12.326ZM114.092 10.76C113.426 10.76 112.868 10.553 112.418 10.139C111.986 9.707 111.77 9.176 111.77 8.546C111.77 7.916 111.986 7.394 112.418 6.98C112.868 6.548 113.426 6.332 114.092 6.332C114.758 6.332 115.307 6.548 115.739 6.98C116.189 7.394 116.414 7.916 116.414 8.546C116.414 9.176 116.189 9.707 115.739 10.139C115.307 10.553 114.758 10.76 114.092 10.76ZM115.955 12.542V27.5H112.175V12.542H115.955ZM127.979 12.326C129.761 12.326 131.201 12.893 132.299 14.027C133.397 15.143 133.946 16.709 133.946 18.725V27.5H130.166V19.238C130.166 18.05 129.869 17.141 129.275 16.511C128.681 15.863 127.871 15.539 126.845 15.539C125.801 15.539 124.973 15.863 124.361 16.511C123.767 17.141 123.47 18.05 123.47 19.238V27.5H119.69V12.542H123.47V14.405C123.974 13.757 124.613 13.253 125.387 12.893C126.179 12.515 127.043 12.326 127.979 12.326ZM143.002 19.967C143.002 18.455 143.299 17.114 143.893 15.944C144.505 14.774 145.333 13.874 146.377 13.244C147.421 12.614 148.582 12.299 149.86 12.299C150.832 12.299 151.759 12.515 152.641 12.947C153.523 13.361 154.225 13.919 154.747 14.621V7.52H158.581V27.5H154.747V25.286C154.279 26.024 153.622 26.618 152.776 27.068C151.93 27.518 150.949 27.743 149.833 27.743C148.573 27.743 147.421 27.419 146.377 26.771C145.333 26.123 144.505 25.214 143.893 24.044C143.299 22.856 143.002 21.497 143.002 19.967ZM154.774 20.021C154.774 19.103 154.594 18.32 154.234 17.672C153.874 17.006 153.388 16.502 152.776 16.16C152.164 15.8 151.507 15.62 150.805 15.62C150.103 15.62 149.455 15.791 148.861 16.133C148.267 16.475 147.781 16.979 147.403 17.645C147.043 18.293 146.863 19.067 146.863 19.967C146.863 20.867 147.043 21.659 147.403 22.343C147.781 23.009 148.267 23.522 148.861 23.882C149.473 24.242 150.121 24.422 150.805 24.422C151.507 24.422 152.164 24.251 152.776 23.909C153.388 23.549 153.874 23.045 154.234 22.397C154.594 21.731 154.774 20.939 154.774 20.021ZM161.301 19.967C161.301 18.455 161.598 17.114 162.192 15.944C162.804 14.774 163.623 13.874 164.649 13.244C165.693 12.614 166.854 12.299 168.132 12.299C169.248 12.299 170.22 12.524 171.048 12.974C171.894 13.424 172.569 13.991 173.073 14.675V12.542H176.88V27.5H173.073V25.313C172.587 26.015 171.912 26.6 171.048 27.068C170.202 27.518 169.221 27.743 168.105 27.743C166.845 27.743 165.693 27.419 164.649 26.771C163.623 26.123 162.804 25.214 162.192 24.044C161.598 22.856 161.301 21.497 161.301 19.967ZM173.073 20.021C173.073 19.103 172.893 18.32 172.533 17.672C172.173 17.006 171.687 16.502 171.075 16.16C170.463 15.8 169.806 15.62 169.104 15.62C168.402 15.62 167.754 15.791 167.16 16.133C166.566 16.475 166.08 16.979 165.702 17.645C165.342 18.293 165.162 19.067 165.162 19.967C165.162 20.867 165.342 21.659 165.702 22.343C166.08 23.009 166.566 23.522 167.16 23.882C167.772 24.242 168.42 24.422 169.104 24.422C169.806 24.422 170.463 24.251 171.075 23.909C171.687 23.549 172.173 23.045 172.533 22.397C172.893 21.731 173.073 20.939 173.073 20.021ZM194.882 12.542L185.621 34.574H181.598L184.838 27.122L178.844 12.542H183.083L186.944 22.991L190.859 12.542H194.882ZM202.643 27.743C201.419 27.743 200.321 27.527 199.349 27.095C198.377 26.645 197.603 26.042 197.027 25.286C196.469 24.53 196.163 23.693 196.109 22.775H199.916C199.988 23.351 200.267 23.828 200.753 24.206C201.257 24.584 201.878 24.773 202.616 24.773C203.336 24.773 203.894 24.629 204.29 24.341C204.704 24.053 204.911 23.684 204.911 23.234C204.911 22.748 204.659 22.388 204.155 22.154C203.669 21.902 202.886 21.632 201.806 21.344C200.69 21.074 199.772 20.795 199.052 20.507C198.35 20.219 197.738 19.778 197.216 19.184C196.712 18.59 196.46 17.789 196.46 16.781C196.46 15.953 196.694 15.197 197.162 14.513C197.648 13.829 198.332 13.289 199.214 12.893C200.114 12.497 201.167 12.299 202.373 12.299C204.155 12.299 205.577 12.749 206.639 13.649C207.701 14.531 208.286 15.728 208.394 17.24H204.776C204.722 16.646 204.47 16.178 204.02 15.836C203.588 15.476 203.003 15.296 202.265 15.296C201.581 15.296 201.05 15.422 200.672 15.674C200.312 15.926 200.132 16.277 200.132 16.727C200.132 17.231 200.384 17.618 200.888 17.888C201.392 18.14 202.175 18.401 203.237 18.671C204.317 18.941 205.208 19.22 205.91 19.508C206.612 19.796 207.215 20.246 207.719 20.858C208.241 21.452 208.511 22.244 208.529 23.234C208.529 24.098 208.286 24.872 207.8 25.556C207.332 26.24 206.648 26.78 205.748 27.176C204.866 27.554 203.831 27.743 202.643 27.743Z" fill="white"/>
</svg>
