<svg width="185" height="36" viewBox="0 0 185 36" fill="none" xmlns="http://www.w3.org/2000/svg">
<path d="M21.6246 6.33555C21.1353 6.06924 20.6726 6 20.1886 6H18.6038H17.0189C16.5349 6 16.0722 6.06391 15.5829 6.33555C15.0511 6.62849 14.6948 6.92675 14.6948 7.37948C14.6948 7.87481 14.7799 8.05057 15.1841 8.88678C15.5882 9.72299 15.8914 10.4047 16.1094 10.5592C16.3275 10.7137 17.1306 10.6977 17.1306 10.6977H18.6038H20.077C20.077 10.6977 20.88 10.7137 21.0981 10.5592C21.3161 10.4047 21.6193 9.72299 22.0235 8.88678C22.4277 8.05057 22.5128 7.87481 22.5128 7.37948C22.5128 6.92675 22.1617 6.62316 21.6246 6.33555Z" fill="#FF884A"/>
<path d="M22.3266 26.7879L22.0288 27.0969C21.3374 27.8212 20.5982 28.4976 19.8217 29.1261L19.1782 29.6428C19.0877 29.7173 18.9707 29.7546 18.8537 29.7546H18.3485C18.2315 29.7546 18.1145 29.712 18.0241 29.6428L17.3805 29.1261C16.5987 28.4976 15.8648 27.8212 15.1734 27.0969L14.8756 26.7879C14.7586 26.6654 14.7054 26.495 14.732 26.3299L15.5085 21.2541L15.9286 18.5164L16.2211 16.5883L16.5456 14.4845L16.9657 11.7309C16.987 11.5924 17.104 11.4912 17.2476 11.4912H19.944C20.0823 11.4912 20.2046 11.5924 20.2259 11.7309L20.646 14.4845L20.9704 16.5883L21.263 18.5164L21.6831 21.2541L22.4596 26.3299C22.4968 26.5003 22.4436 26.6654 22.3266 26.7879Z" fill="#FF884A"/>
<path d="M35.8299 17.4247C35.8299 19.2356 35.0162 20.9347 33.5324 22.2023C32.0911 23.4326 30.1872 24.1144 28.1662 24.1144C26.1452 24.1144 24.2412 23.438 22.8 22.2023L21.6937 21.2596L21.2736 18.5219L23.97 20.8281C26.2835 22.8041 30.0436 22.8041 32.357 20.8281C33.4314 19.912 34.0217 18.703 34.0217 17.43C34.0217 16.1571 33.4314 14.9481 32.357 14.032C31.203 13.0413 29.6819 12.5513 28.1662 12.5513C26.6504 12.5513 25.1294 13.0466 23.9753 14.032L20.9811 16.5938L20.0025 17.4354L18.6038 18.6125L15.5191 21.2542L14.4129 22.197C12.9716 23.4273 11.0676 24.1091 9.04667 24.1091C7.02569 24.1091 5.12171 23.4326 3.68044 22.197C2.19661 20.9293 1.3829 19.2356 1.3829 17.4194C1.3829 15.6032 2.19661 13.9095 3.68044 12.6418C4.39842 12.024 5.23872 11.55 6.14816 11.2251C7.0576 10.9002 8.04149 10.7297 9.05198 10.7297C11.073 10.7297 12.9769 11.4062 14.4182 12.6418L16.5615 14.474L16.2371 16.5779L13.2429 14.016C12.0888 13.0306 10.5677 12.5353 9.05198 12.5353C7.53625 12.5353 6.0152 13.0306 4.86111 14.016C4.32396 14.474 3.90913 15.0066 3.62725 15.5819C3.34538 16.1571 3.19647 16.7803 3.19647 17.4141C3.19647 18.687 3.7868 19.8961 4.86111 20.8122C7.1746 22.7882 10.9347 22.7882 13.2482 20.8122L15.9446 18.5059L17.221 17.4141L18.6144 16.221L20.6673 14.4687L22.8106 12.6365C24.2412 11.4168 26.1452 10.7404 28.1662 10.7404C30.1872 10.7404 32.0911 11.4168 33.5324 12.6525C34.2717 13.2863 34.846 14.0266 35.2343 14.8362C35.6225 15.6405 35.8299 16.5193 35.8299 17.4247Z" fill="#F4DDD5"/>
<path d="M45.9961 19.967C45.9961 18.455 46.2931 17.114 46.8871 15.944C47.4991 14.774 48.3181 13.874 49.3441 13.244C50.3881 12.614 51.5491 12.299 52.8271 12.299C53.9431 12.299 54.9151 12.524 55.7431 12.974C56.5891 13.424 57.2641 13.991 57.7681 14.675V12.542H61.5751V27.5H57.7681V25.313C57.2821 26.015 56.6071 26.6 55.7431 27.068C54.8971 27.518 53.9161 27.743 52.8001 27.743C51.5401 27.743 50.3881 27.419 49.3441 26.771C48.3181 26.123 47.4991 25.214 46.8871 24.044C46.2931 22.856 45.9961 21.497 45.9961 19.967ZM57.7681 20.021C57.7681 19.103 57.5881 18.32 57.2281 17.672C56.8681 17.006 56.3821 16.502 55.7701 16.16C55.1581 15.8 54.5011 15.62 53.7991 15.62C53.0971 15.62 52.4491 15.791 51.8551 16.133C51.2611 16.475 50.7751 16.979 50.3971 17.645C50.0371 18.293 49.8571 19.067 49.8571 19.967C49.8571 20.867 50.0371 21.659 50.3971 22.343C50.7751 23.009 51.2611 23.522 51.8551 23.882C52.4671 24.242 53.1151 24.422 53.7991 24.422C54.5011 24.422 55.1581 24.251 55.7701 23.909C56.3821 23.549 56.8681 23.045 57.2281 22.397C57.5881 21.731 57.7681 20.939 57.7681 20.021ZM64.295 19.967C64.295 18.455 64.592 17.114 65.186 15.944C65.798 14.774 66.626 13.874 67.67 13.244C68.714 12.614 69.875 12.299 71.153 12.299C72.125 12.299 73.052 12.515 73.934 12.947C74.816 13.361 75.518 13.919 76.04 14.621V7.52H79.874V27.5H76.04V25.286C75.572 26.024 74.915 26.618 74.069 27.068C73.223 27.518 72.242 27.743 71.126 27.743C69.866 27.743 68.714 27.419 67.67 26.771C66.626 26.123 65.798 25.214 65.186 24.044C64.592 22.856 64.295 21.497 64.295 19.967ZM76.067 20.021C76.067 19.103 75.887 18.32 75.527 17.672C75.167 17.006 74.681 16.502 74.069 16.16C73.457 15.8 72.8 15.62 72.098 15.62C71.396 15.62 70.748 15.791 70.154 16.133C69.56 16.475 69.074 16.979 68.696 17.645C68.336 18.293 68.156 19.067 68.156 19.967C68.156 20.867 68.336 21.659 68.696 22.343C69.074 23.009 69.56 23.522 70.154 23.882C70.766 24.242 71.414 24.422 72.098 24.422C72.8 24.422 73.457 24.251 74.069 23.909C74.681 23.549 75.167 23.045 75.527 22.397C75.887 21.731 76.067 20.939 76.067 20.021ZM102.142 12.326C103.978 12.326 105.454 12.893 106.57 14.027C107.704 15.143 108.271 16.709 108.271 18.725V27.5H104.491V19.238C104.491 18.068 104.194 17.177 103.6 16.565C103.006 15.935 102.196 15.62 101.17 15.62C100.144 15.62 99.3248 15.935 98.7128 16.565C98.1188 17.177 97.8218 18.068 97.8218 19.238V27.5H94.0418V19.238C94.0418 18.068 93.7448 17.177 93.1508 16.565C92.5568 15.935 91.7468 15.62 90.7208 15.62C89.6768 15.62 88.8488 15.935 88.2368 16.565C87.6428 17.177 87.3458 18.068 87.3458 19.238V27.5H83.5658V12.542H87.3458V14.351C87.8318 13.721 88.4528 13.226 89.2088 12.866C89.9828 12.506 90.8288 12.326 91.7468 12.326C92.9168 12.326 93.9608 12.578 94.8788 13.082C95.7968 13.568 96.5078 14.27 97.0118 15.188C97.4978 14.324 98.1998 13.631 99.1178 13.109C100.054 12.587 101.062 12.326 102.142 12.326ZM117.319 19.967C117.319 18.455 117.616 17.114 118.21 15.944C118.822 14.774 119.65 13.874 120.694 13.244C121.738 12.614 122.899 12.299 124.177 12.299C125.149 12.299 126.076 12.515 126.958 12.947C127.84 13.361 128.542 13.919 129.064 14.621V7.52H132.898V27.5H129.064V25.286C128.596 26.024 127.939 26.618 127.093 27.068C126.247 27.518 125.266 27.743 124.15 27.743C122.89 27.743 121.738 27.419 120.694 26.771C119.65 26.123 118.822 25.214 118.21 24.044C117.616 22.856 117.319 21.497 117.319 19.967ZM129.091 20.021C129.091 19.103 128.911 18.32 128.551 17.672C128.191 17.006 127.705 16.502 127.093 16.16C126.481 15.8 125.824 15.62 125.122 15.62C124.42 15.62 123.772 15.791 123.178 16.133C122.584 16.475 122.098 16.979 121.72 17.645C121.36 18.293 121.18 19.067 121.18 19.967C121.18 20.867 121.36 21.659 121.72 22.343C122.098 23.009 122.584 23.522 123.178 23.882C123.79 24.242 124.438 24.422 125.122 24.422C125.824 24.422 126.481 24.251 127.093 23.909C127.705 23.549 128.191 23.045 128.551 22.397C128.911 21.731 129.091 20.939 129.091 20.021ZM135.618 19.967C135.618 18.455 135.915 17.114 136.509 15.944C137.121 14.774 137.94 13.874 138.966 13.244C140.01 12.614 141.171 12.299 142.449 12.299C143.565 12.299 144.537 12.524 145.365 12.974C146.211 13.424 146.886 13.991 147.39 14.675V12.542H151.197V27.5H147.39V25.313C146.904 26.015 146.229 26.6 145.365 27.068C144.519 27.518 143.538 27.743 142.422 27.743C141.162 27.743 140.01 27.419 138.966 26.771C137.94 26.123 137.121 25.214 136.509 24.044C135.915 22.856 135.618 21.497 135.618 19.967ZM147.39 20.021C147.39 19.103 147.21 18.32 146.85 17.672C146.49 17.006 146.004 16.502 145.392 16.16C144.78 15.8 144.123 15.62 143.421 15.62C142.719 15.62 142.071 15.791 141.477 16.133C140.883 16.475 140.397 16.979 140.019 17.645C139.659 18.293 139.479 19.067 139.479 19.967C139.479 20.867 139.659 21.659 140.019 22.343C140.397 23.009 140.883 23.522 141.477 23.882C142.089 24.242 142.737 24.422 143.421 24.422C144.123 24.422 144.78 24.251 145.392 23.909C146.004 23.549 146.49 23.045 146.85 22.397C147.21 21.731 147.39 20.939 147.39 20.021ZM169.199 12.542L159.938 34.574H155.915L159.155 27.122L153.161 12.542H157.4L161.261 22.991L165.176 12.542H169.199ZM176.961 27.743C175.737 27.743 174.639 27.527 173.667 27.095C172.695 26.645 171.921 26.042 171.345 25.286C170.787 24.53 170.481 23.693 170.427 22.775H174.234C174.306 23.351 174.585 23.828 175.071 24.206C175.575 24.584 176.196 24.773 176.934 24.773C177.654 24.773 178.212 24.629 178.608 24.341C179.022 24.053 179.229 23.684 179.229 23.234C179.229 22.748 178.977 22.388 178.473 22.154C177.987 21.902 177.204 21.632 176.124 21.344C175.008 21.074 174.09 20.795 173.37 20.507C172.668 20.219 172.056 19.778 171.534 19.184C171.03 18.59 170.778 17.789 170.778 16.781C170.778 15.953 171.012 15.197 171.48 14.513C171.966 13.829 172.65 13.289 173.532 12.893C174.432 12.497 175.485 12.299 176.691 12.299C178.473 12.299 179.895 12.749 180.957 13.649C182.019 14.531 182.604 15.728 182.712 17.24H179.094C179.04 16.646 178.788 16.178 178.338 15.836C177.906 15.476 177.321 15.296 176.583 15.296C175.899 15.296 175.368 15.422 174.99 15.674C174.63 15.926 174.45 16.277 174.45 16.727C174.45 17.231 174.702 17.618 175.206 17.888C175.71 18.14 176.493 18.401 177.555 18.671C178.635 18.941 179.526 19.22 180.228 19.508C180.93 19.796 181.533 20.246 182.037 20.858C182.559 21.452 182.829 22.244 182.847 23.234C182.847 24.098 182.604 24.872 182.118 25.556C181.65 26.24 180.966 26.78 180.066 27.176C179.184 27.554 178.149 27.743 176.961 27.743Z" fill="white"/>
</svg>
