<svg width="1477" height="750" viewBox="0 0 1477 750" fill="none" xmlns="http://www.w3.org/2000/svg">
<path fill-rule="evenodd" clip-rule="evenodd" d="M1477 389.9L1424.09 389.362V393.308H1413.33L1412.97 378.422H1400.96L1400.78 393.308H1394.32V389.9L1360.96 390.08L1360.42 327.307H1318.81L1315.59 330.536L1315.76 385.058H1308.77L1296.75 390.259L1296.22 398.688L1286.35 399.227L1285.99 391.873L1284.02 389.183L1276.13 388.824L1275.77 392.949L1271.11 392.77L1269.13 232.072L1258.19 213.958L1171.57 214.855L1172.46 301.302L1165.65 301.481V307.22H1153.63L1153.81 233.687L1150.4 225.795L1115.61 229.382L1115.07 240.323L1086.02 244.089L1084.22 168.224L1075.44 165.713L1074.72 136.479H1044.23L1043.87 167.148L1037.23 167.686L1036.34 244.806L1007.64 240.143L977.69 246.779L977.152 154.414L966.032 142.756L928.548 143.115L926.575 334.123L906.847 334.481V343.09L900.928 343.269V353.851L878.868 348.291V332.867L866.314 331.97L866.493 233.507L859.857 225.437L857.526 225.616V230.1L845.868 229.92L846.047 221.311L835.824 217.186L763.905 218.98V366.764L753.144 366.585V368.378L749.378 368.558V293.231L735.03 289.106L706.513 289.644L706.154 321.927H686.067L685.708 286.774L684.453 285.877L684.274 264.714L682.839 264.355L682.48 243.372L680.866 243.013L680.687 224.719L677.817 219.697L675.306 204.273L668.311 200.686L638.36 200.507L634.952 203.018L629.393 213.241L628.675 219.518L625.447 222.208L621.142 339.862L617.914 340.4V343.449H602.311L601.952 245.344L560.522 234.583L559.984 213.061L557.294 210.909L556.756 174.501L553.707 173.425L553.348 162.843L533.799 159.794L492.369 161.409L492.011 173.066L487.706 173.246L487.886 210.371H483.94V264.176L478.559 264.355L478.739 294.666H472.641V292.334L460.266 291.975L460.445 316.905L456.499 322.106L453.45 322.285L450.043 317.981L441.075 318.16L440.896 325.514L436.591 328.921L437.309 385.775L430.852 386.134L431.57 224.002L420.45 214.317L394.624 213.779L393.368 212.344L356.781 213.061L356.422 215.572L342.074 215.752L326.291 222.029L324.677 353.851L298.492 353.134L298.133 358.693H292.574L293.112 280.138L288.269 278.524L288.09 269.915L283.427 267.942L240.024 271.35V278.345L232.85 278.165L231.595 391.514H212.584V386.313L198.594 382.368V390.618L193.034 390.797L193.214 260.23L175.817 253.056L136.898 260.23L134.387 360.666L111.251 364.791L111.071 394.384L37 395.64V479.321L1477 478.065V389.9Z" fill="#28223A"/>
<path fill-rule="evenodd" clip-rule="evenodd" d="M134.387 360.666L174.203 361.922L175.817 253.056L136.898 260.23L134.387 360.666Z" fill="#2B243E" stroke="#2B243E" stroke-width="0.216" stroke-miterlimit="22.9256"/>
<path fill-rule="evenodd" clip-rule="evenodd" d="M231.595 391.515L262.443 391.335L263.698 277.269L267.106 277.448L266.568 391.335H281.813L283.427 267.943L240.024 271.35V278.345L232.85 278.165L231.595 391.515Z" fill="#2B243E" stroke="#2B243E" stroke-width="0.216" stroke-miterlimit="22.9256"/>
<path fill-rule="evenodd" clip-rule="evenodd" d="M323.96 419.672L324.677 353.851L326.291 222.029L412.559 219.518L411.124 389.183L399.466 388.824V382.906L347.634 383.264V390.08L336.873 391.335L337.232 420.031L323.96 419.672Z" fill="#2B243E" stroke="#2B243E" stroke-width="0.216" stroke-miterlimit="22.9256"/>
<path fill-rule="evenodd" clip-rule="evenodd" d="M545.098 307.22L524.114 305.068V297.894H509.766L508.511 293.948L478.739 294.128L478.559 264.355L483.94 264.176V210.371H487.886L487.706 173.246L492.011 173.066L492.369 161.409L533.799 159.794L533.979 171.273L537.924 171.452L537.207 209.833L541.691 210.192L541.511 264.355L544.74 263.997L545.098 307.22Z" fill="#2B243E" stroke="#2B243E" stroke-width="0.216" stroke-miterlimit="22.9256"/>
<path fill-rule="evenodd" clip-rule="evenodd" d="M563.392 329.818L563.212 266.508L560.702 266.328L560.522 234.583L571.642 245.524V284.084L567.517 284.443L567.158 330.894L563.392 329.818Z" fill="#2B243E" stroke="#2B243E" stroke-width="0.216" stroke-miterlimit="22.9256"/>
<path fill-rule="evenodd" clip-rule="evenodd" d="M625.985 382.547L621.143 339.862L625.447 222.208L628.675 219.518L653.784 217.545L657.192 220.056L656.833 239.426H653.605L654.143 262.024H650.556L650.197 283.187H647.507L646.79 382.547H625.985Z" fill="#2B243E" stroke="#2B243E" stroke-width="0.216" stroke-miterlimit="22.9256"/>
<path fill-rule="evenodd" clip-rule="evenodd" d="M706.154 321.927H734.85L735.03 289.106L706.513 289.644L706.154 321.927Z" fill="#2B243E" stroke="#2B243E" stroke-width="0.216" stroke-miterlimit="22.9256"/>
<path fill-rule="evenodd" clip-rule="evenodd" d="M769.644 259.872L763.905 283.546V218.98L835.824 217.186L836.003 284.622L845.868 284.981V398.15L832.058 398.509L831.699 407.477L820.938 408.015L820.4 398.509L807.307 397.612V389.542H801.03L800.133 285.877L805.155 286.416L804.797 265.252L799.237 257.72L769.644 259.872Z" fill="#2B243E" stroke="#2B243E" stroke-width="0.216" stroke-miterlimit="22.9256"/>
<path d="M903.081 354.927H896.445V399.765H903.081V354.927Z" fill="#2B243E" stroke="#2B243E" stroke-width="0.216" stroke-miterlimit="22.9256"/>
<path d="M911.51 354.927H905.233V408.912H911.51V354.927Z" fill="#2B243E" stroke="#2B243E" stroke-width="0.216" stroke-miterlimit="22.9256"/>
<path d="M920.298 354.748H913.662V410.884H920.298V354.748Z" fill="#2B243E" stroke="#2B243E" stroke-width="0.216" stroke-miterlimit="22.9256"/>
<path fill-rule="evenodd" clip-rule="evenodd" d="M966.032 142.756L968.364 387.031H957.603L956.706 370.889L941.282 370.351V378.063H935.184L935.005 351.519H930.162L930.521 343.628L926.934 343.09L926.575 334.123L928.548 143.115L966.032 142.756Z" fill="#2B243E" stroke="#2B243E" stroke-width="0.216" stroke-miterlimit="22.9256"/>
<path fill-rule="evenodd" clip-rule="evenodd" d="M977.152 271.35H995.625L995.087 401.558L976.434 399.944L977.152 271.35Z" fill="#2B243E" stroke="#2B243E" stroke-width="0.216" stroke-miterlimit="22.9256"/>
<path fill-rule="evenodd" clip-rule="evenodd" d="M1035.44 314.573L1036.34 244.806L1037.23 167.686L1043.87 167.148L1044.23 136.479H1069.52L1070.06 166.43L1079.74 170.017L1079.38 249.111L1079.74 317.981L1035.44 314.573Z" fill="#2B243E" stroke="#2B243E" stroke-width="0.216" stroke-miterlimit="22.9256"/>
<path fill-rule="evenodd" clip-rule="evenodd" d="M1114.53 245.524L1115.07 240.323L1115.61 229.382L1150.4 225.795L1149.87 305.068L1133.01 304.351L1132.29 245.882L1114.53 245.524Z" fill="#2B243E" stroke="#2B243E" stroke-width="0.216" stroke-miterlimit="22.9256"/>
<path fill-rule="evenodd" clip-rule="evenodd" d="M1171.75 229.92H1201.34L1202.59 297.535L1218.38 297.356L1218.74 229.562L1248.33 230.458L1248.15 213.958H1258.19L1259.63 393.308L1220.89 397.612L1221.43 343.987H1213.71L1213.36 398.15L1153.45 396.895L1153.63 307.22H1165.65V301.481L1172.46 301.301L1171.75 229.92Z" fill="#2B243E" stroke="#2B243E" stroke-width="0.216" stroke-miterlimit="22.9256"/>
<path fill-rule="evenodd" clip-rule="evenodd" d="M1036.34 332.688L1035.8 428.461L1040.28 428.999V423.618H1048.35L1060.19 415.547L1060.01 331.97L1036.34 332.688Z" fill="#2B243E" stroke="#2B243E" stroke-width="0.216" stroke-miterlimit="22.9256"/>
<rect x="367" width="40" height="480" fill="#251E38"/>
<rect x="295" width="12" height="480" fill="#251E38"/>
<rect x="97" width="12" height="480" fill="#251E38"/>
<rect x="37" y="172" width="11.9999" height="1440" transform="rotate(-90 37 172)" fill="#251E38"/>
<rect x="467" width="12" height="480" fill="#251E38"/>
<rect x="665" width="12" height="480" fill="#251E38"/>
<rect x="837" width="12" height="480" fill="#251E38"/>
<rect x="1035" width="12" height="480" fill="#251E38"/>
<rect x="1207" width="12" height="480" fill="#251E38"/>
<rect x="1405" width="12" height="480" fill="#251E38"/>
<rect x="737" width="40" height="480" fill="#251E38"/>
<rect x="1107" width="40" height="480" fill="#251E38"/>
<rect x="737" y="480" width="40" height="240" fill="url(#paint0_linear_1661_1776)"/>
<rect x="1107" y="480" width="40" height="240" fill="url(#paint1_linear_1661_1776)"/>
<rect x="367" y="480" width="40" height="240" fill="url(#paint2_linear_1661_1776)"/>
<g style="mix-blend-mode:overlay" opacity="0.1">
<path d="M1424 750L1477 480H1147L1036.5 711L1424 750Z" fill="white"/>
</g>
<g style="mix-blend-mode:overlay" opacity="0.1">
<path d="M953 702L1107 480H777L561.5 662L953 702Z" fill="white"/>
</g>
<g style="mix-blend-mode:overlay" opacity="0.1">
<path d="M464.5 651.5L737 480H407L111 615L464.5 651.5Z" fill="white"/>
</g>
<g style="mix-blend-mode:overlay" opacity="0.1">
<path d="M0 601.5L295 480H37L0 601.5Z" fill="white"/>
</g>
<defs>
<linearGradient id="paint0_linear_1661_1776" x1="757" y1="480" x2="757" y2="720" gradientUnits="userSpaceOnUse">
<stop stop-color="#2B253F"/>
<stop offset="0.758629" stop-color="#2B253F" stop-opacity="0"/>
</linearGradient>
<linearGradient id="paint1_linear_1661_1776" x1="1127" y1="480" x2="1127" y2="720" gradientUnits="userSpaceOnUse">
<stop stop-color="#2B253F"/>
<stop offset="0.758629" stop-color="#2B253F" stop-opacity="0"/>
</linearGradient>
<linearGradient id="paint2_linear_1661_1776" x1="387" y1="480" x2="387" y2="720" gradientUnits="userSpaceOnUse">
<stop stop-color="#2B253F"/>
<stop offset="0.758629" stop-color="#2B253F" stop-opacity="0"/>
</linearGradient>
</defs>
</svg>
